<svg width="160" height="160" viewBox="0 0 160 160" fill="none" xmlns="http://www.w3.org/2000/svg">
<path fill-rule="evenodd" clip-rule="evenodd" d="M80 2.13882e-05C81.2523 0.0282776 84.6943 27.4877 85.5293 63.9942C103.604 47.8834 119.201 38.3692 120.42 39.5791L120.471 39.6582C121.117 41.131 113.495 53.8782 100.353 69.4414C134.737 65.0365 160.021 78.7078 160 79.9414C159.971 81.2616 130.96 73.0829 92.9463 82.127C110.901 101.594 121.706 119.097 120.421 120.392C119.297 121.511 103.648 112.065 85.5567 95.9864C84.8421 132.518 81.845 160.042 80 160C78.0918 159.957 75.1433 132.513 74.4405 96.0147C56.3609 112.077 40.7279 121.512 39.6075 120.392C38.5102 119.286 46.2318 106.356 59.6944 90.4776C25.2779 95.0438 -0.039939 81.7592 4.72981e-05 79.9414L0.0283676 79.8467C1.05206 78.2284 29.6744 86.4992 67 77.7481C49.4284 58.6386 38.7993 41.3871 39.5577 39.6582L39.6094 39.5791C40.8292 38.3709 56.4094 47.8743 74.4707 63.9688C75.3072 27.4623 78.7506 -0.0279906 80 2.13882e-05ZM80.0147 90.9199C78.7122 92.1461 77.4141 93.3393 76.128 94.502C76.412 110.731 77.1427 125.233 78.0362 136.415C78.6127 143.63 79.2518 149.438 79.8799 153.427C79.9146 153.647 79.952 153.861 79.9864 154.068C80.0183 153.874 80.0547 153.673 80.087 153.468C80.7119 149.482 81.3584 143.67 81.9395 136.448C82.8405 125.25 83.5809 110.721 83.8692 94.4737C82.5935 93.3201 81.3065 92.136 80.0147 90.9199ZM74.3204 87.5166C70.2073 88.6416 66.1813 89.4912 62.2647 90.1055C57.1951 95.9962 52.8928 101.522 49.5137 106.235C46.484 110.461 44.2124 114.009 42.7999 116.563C42.5485 117.018 42.3335 117.438 42.1426 117.816C42.519 117.624 42.9343 117.404 43.3858 117.153C45.9395 115.734 49.4951 113.465 53.7286 110.441C59.6388 106.221 66.8256 100.56 74.4014 93.753C74.3675 91.7 74.3394 89.6202 74.3204 87.5166ZM91.042 82.5928C89.8931 82.8815 88.7363 83.1857 87.5723 83.5069C86.9531 84.1402 86.3264 84.7734 85.6934 85.4072C85.6747 88.2219 85.6415 90.9968 85.5957 93.7246C93.1834 100.544 100.382 106.215 106.301 110.441C110.534 113.465 114.09 115.734 116.644 117.153C117.095 117.404 117.51 117.624 117.886 117.816C117.695 117.438 117.481 117.018 117.23 116.563C115.817 114.009 113.544 110.462 110.515 106.235C105.729 99.5596 99.0894 91.2564 91.042 82.5928ZM76.0303 87.0889C76.0451 88.818 76.0639 90.5311 76.0889 92.2266C76.9784 91.4132 77.8717 90.5838 78.7686 89.7403C77.8576 88.8713 76.9445 87.9872 76.0303 87.0889ZM83.9678 87.1192C83.0639 88.0072 82.1607 88.8809 81.2598 89.7403C82.1464 90.5742 83.0298 91.3939 83.9092 92.1983C83.9343 90.5218 83.9529 88.8282 83.9678 87.1192ZM68.3379 79.1953C50.8884 83.4039 35.2785 83.9127 23.379 83.3819C16.0731 83.0559 10.1584 82.3358 6.10259 81.8447C6.07554 81.8415 6.04838 81.8363 6.02153 81.833C6.31795 81.9719 6.62473 82.1193 6.94731 82.2627C10.8716 84.0077 16.6062 86.0108 23.7247 87.5C33.8958 89.6277 46.8574 90.6999 61.3829 88.5069C63.7863 85.7279 66.3552 82.8706 69.0772 79.9834C68.8296 79.7204 68.583 79.4578 68.3379 79.1953ZM83.9874 84.541C82.6665 84.9399 81.337 85.3602 80 85.8037C79.2857 86.0401 78.5732 86.2669 77.8633 86.4864C78.5812 87.1868 79.2981 87.8784 80.0137 88.5606C81.334 87.3021 82.6597 86.0126 83.9854 84.6924C83.9857 84.642 83.9871 84.5915 83.9874 84.541ZM70.2579 81.2295C68.0819 83.5394 66.0034 85.8284 64.0313 88.0733C67.3842 87.4816 70.8144 86.7132 74.3077 85.7422C74.3068 85.6209 74.3055 85.4995 74.3047 85.378C72.9226 83.9933 71.5733 82.6086 70.2579 81.2295ZM83.4825 74.7803C82.5056 75.0731 81.5239 75.3828 80.5381 75.709C79.0176 76.2134 77.5065 76.6861 76.0069 77.1319C76.0029 78.0838 75.9991 79.0399 75.9991 80C75.9991 81.5647 76.0031 83.1189 76.0118 84.6612C76.1646 84.8134 76.317 84.9658 76.4698 85.1172C76.7875 85.0219 77.1062 84.9259 77.4249 84.8272L79.462 84.1768C80.9828 83.6723 82.4942 83.1985 83.9942 82.751C83.9973 81.8378 84.001 80.9207 84.001 80C84.001 78.4149 83.9942 76.8405 83.9834 75.2783C83.8164 75.1119 83.6495 74.9458 83.4825 74.7803ZM73.4971 77.8516C72.8019 78.5637 72.115 79.2746 71.4375 79.9844C72.3721 80.9648 73.3243 81.9476 74.293 82.9317C74.2896 81.9588 74.2862 80.9815 74.2862 80C74.2862 79.2079 74.2893 78.4185 74.292 77.6319C74.0271 77.7072 73.7614 77.778 73.4971 77.8516ZM85.7139 80C85.7139 80.7518 85.7101 81.5012 85.7081 82.2481C86.0279 82.1566 86.3482 82.0695 86.667 81.9805C87.316 81.3143 87.9568 80.6486 88.5899 79.9844C87.6457 78.9951 86.6838 78.0031 85.7051 77.0098C85.7094 78.002 85.7139 78.9989 85.7139 80ZM136.258 72.6426C126.101 70.4567 113.17 69.2798 98.6788 71.4033C96.2676 74.2019 93.6859 77.0772 90.9502 79.9834C91.1709 80.2174 91.3908 80.451 91.6094 80.6846C109.074 76.4158 124.703 75.7614 136.618 76.2139C142.858 76.4509 148.082 76.995 152.012 77.4776C148.132 75.8626 142.772 74.0447 136.258 72.6426ZM70.2432 78.7227C70.2484 78.7282 70.2536 78.7337 70.2588 78.7393C70.2677 78.73 70.2763 78.7203 70.2852 78.711C70.2711 78.7146 70.2573 78.7191 70.2432 78.7227ZM96.044 71.8242C92.6655 72.4066 89.2078 73.1698 85.6866 74.1446C85.6877 74.2831 85.6884 74.4218 85.6895 74.5606C87.0826 75.9556 88.4434 77.3497 89.7696 78.7383C91.9641 76.4051 94.0587 74.0925 96.044 71.8242ZM42.1856 42.1162C42.3775 42.492 42.5962 42.9069 42.8467 43.3574C44.2664 45.9111 46.5356 49.4659 49.5586 53.6992C54.3173 60.3629 60.9047 68.6515 68.9043 77.2881C70.1265 76.9848 71.3575 76.6635 72.5967 76.3223C73.1618 75.7456 73.7323 75.1682 74.3086 74.5908C74.3308 71.7604 74.3707 68.9701 74.4249 66.2276C66.8494 59.4023 59.6699 53.7188 53.7647 49.4854C49.5386 46.4557 45.9914 44.184 43.4366 42.7715C42.9828 42.5207 42.5632 42.3068 42.1856 42.1162ZM80.0137 71.4092C78.6849 72.6775 77.3508 73.9775 76.0157 75.3076C76.0156 75.3184 76.0157 75.3291 76.0157 75.3399C76.6535 75.1479 77.2939 74.9516 77.9356 74.749L80 74.0791C80.6985 73.848 81.3948 73.6247 82.0889 73.4102C81.3964 72.7345 80.704 72.068 80.0137 71.4092ZM76.1065 67.7539C76.0767 69.4444 76.0549 71.1524 76.0372 72.876C76.9493 71.9793 77.8599 71.0963 78.7686 70.2285C77.8775 69.3891 76.9901 68.5637 76.1065 67.7539ZM83.8926 67.7803C83.0185 68.5817 82.1403 69.3982 81.2588 70.2285C82.1577 71.087 83.0587 71.96 83.961 72.8467C83.9433 71.1419 83.922 69.4525 83.8926 67.7803ZM117.843 42.1162C117.465 42.3067 117.046 42.5208 116.593 42.7715C114.038 44.184 110.49 46.4556 106.264 49.4854C100.351 53.7242 93.1614 59.417 85.5752 66.2539C85.6149 68.2678 85.6482 70.3075 85.6709 72.3701C89.8083 71.2435 93.8577 70.4017 97.7959 69.8008C102.835 63.9227 107.11 58.4059 110.471 53.6992C113.494 49.466 115.763 45.9111 117.183 43.3574C117.433 42.9069 117.651 42.492 117.843 42.1162ZM79.9971 8.00002C79.4578 11.9034 78.8651 17.1889 78.3145 23.5664C77.3486 34.7543 76.4913 49.261 76.1534 65.4824C77.4305 66.64 78.7199 67.8272 80.0137 69.0469C81.2982 67.836 82.5787 66.6575 83.8467 65.5078C83.509 49.2818 82.6517 34.7779 81.6856 23.5908C81.1338 17.2012 80.5376 11.9081 79.9971 8.00002Z" fill="#736344" fill-opacity="0.1"/>
</svg>
