<svg width="20" height="20" viewBox="0 0 20 20" fill="none" xmlns="http://www.w3.org/2000/svg">
<path d="M18.3333 19.1663V19.9996H1.66667V19.1663H18.3333ZM19.1667 18.333V3.88883C19.1667 3.42859 18.7936 3.0555 18.3333 3.0555H1.66667C1.20643 3.0555 0.833334 3.42859 0.833333 3.88883V18.333C0.833333 18.7932 1.20643 19.1663 1.66667 19.1663V19.9996L1.49658 19.9915C0.655993 19.9063 0 19.196 0 18.333V3.88883C1.09167e-06 2.96836 0.746193 2.22217 1.66667 2.22217H18.3333C19.2538 2.22217 20 2.96836 20 3.88883V18.333C20 19.196 19.344 19.9063 18.5034 19.9915L18.3333 19.9996V19.1663C18.7936 19.1663 19.1667 18.7932 19.1667 18.333Z" fill="#736344"/>
<path d="M20 6.94434V7.77767H0V6.94434H20Z" fill="#736344"/>
<path d="M5.27771 4.44416L4.44438 4.44416L4.44438 3.82474e-08L5.27771 0L5.27771 4.44416Z" fill="#736344"/>
<path d="M16.3889 4.44416L15.5556 4.44416L15.5556 3.82474e-08L16.3889 0L16.3889 4.44416Z" fill="#736344"/>
</svg>
