<svg width="184" height="92" viewBox="0 0 184 92" fill="none" xmlns="http://www.w3.org/2000/svg">
<path fill-rule="evenodd" clip-rule="evenodd" d="M92 7.42397e-06C92.4383 0.00989697 93.6423 9.62043 93.9346 22.3975C100.259 16.76 105.717 13.431 106.146 13.8525L106.165 13.8799C106.391 14.3954 103.722 18.8572 99.1221 24.3047C111.158 22.7624 120.008 27.5478 120 27.9795C119.99 28.4415 109.836 25.5788 96.5313 28.7441C102.815 35.5571 106.596 41.6827 106.147 42.1367C105.755 42.5291 100.277 39.223 93.9444 33.5947C93.6943 46.3811 92.6458 56.0146 92 56C91.3321 55.9849 90.2997 46.3798 90.0537 33.6055C83.7261 39.2272 78.2545 42.5289 77.8623 42.1367C77.48 41.7477 80.182 37.2229 84.8926 31.667C72.8471 33.265 63.9861 28.6157 64 27.9795L64.0098 27.9463C64.3677 27.3797 74.3859 30.2749 87.4502 27.2119C81.2999 20.5234 77.5801 14.4848 77.8457 13.8799L77.8633 13.8525C78.2906 13.43 83.7434 16.756 90.0645 22.3887C90.3572 9.61163 91.5627 -0.00975599 92 7.42397e-06ZM92.0049 31.8203C91.5492 32.2493 91.0955 32.6674 90.6455 33.0742C90.7449 38.755 90.9998 43.831 91.3125 47.7451C91.5143 50.2705 91.7382 52.3032 91.958 53.6992C91.9702 53.7763 91.9831 53.8511 91.9951 53.9238C92.0063 53.8557 92.019 53.7858 92.0303 53.7139C92.249 52.319 92.4753 50.2845 92.6787 47.7568C92.9941 43.8368 93.2517 38.751 93.3526 33.0635C92.9064 32.66 92.4567 32.2456 92.0049 31.8203ZM90.0117 30.6289C88.5719 31.0227 87.163 31.3211 85.792 31.5361C84.0176 33.5979 82.5128 35.5329 81.3301 37.1826C80.2699 38.6615 79.4749 39.9027 78.9805 40.7969C78.8926 40.9559 78.8168 41.1031 78.75 41.2354C78.8817 41.1681 79.0276 41.0917 79.1856 41.0039C80.0794 40.507 81.3232 39.7123 82.8047 38.6543C84.8738 37.1767 87.3897 35.1948 90.042 32.8115C90.0301 32.093 90.0184 31.3651 90.0117 30.6289ZM95.8643 28.9072C95.462 29.0083 95.057 29.1151 94.6494 29.2275C94.432 29.4499 94.2116 29.6719 93.9893 29.8945C93.9827 30.8783 93.9721 31.8483 93.9561 32.8018C96.6125 35.1895 99.1331 37.1746 101.205 38.6543C102.687 39.7124 103.931 40.507 104.825 41.0039C104.983 41.0916 105.128 41.1682 105.26 41.2354C105.193 41.1031 105.118 40.9558 105.03 40.7969C104.536 39.9028 103.741 38.6615 102.681 37.1826C101.006 34.846 98.681 31.9397 95.8643 28.9072ZM90.6113 30.4805C90.6165 31.0846 90.6251 31.683 90.6338 32.2754C90.9441 31.9917 91.2556 31.7024 91.5684 31.4082C91.2498 31.1043 90.931 30.7946 90.6113 30.4805ZM93.3867 30.4912C93.0708 30.8015 92.7562 31.1079 92.4414 31.4082C92.7504 31.6989 93.0577 31.9852 93.3643 32.2656C93.373 31.6799 93.3815 31.0883 93.3867 30.4912ZM87.918 27.7178C81.8107 29.1907 76.3475 29.3694 72.1826 29.1836C69.6255 29.0695 67.5553 28.8174 66.1358 28.6455C66.1263 28.6444 66.1169 28.6427 66.1074 28.6416C66.2112 28.6902 66.3187 28.7418 66.4317 28.792C67.8052 29.4028 69.8122 30.1038 72.3037 30.625C75.864 31.3698 80.4008 31.7435 85.4854 30.9756C86.3262 30.0034 87.2255 29.0042 88.1778 27.9941C88.0908 27.9018 88.004 27.8099 87.918 27.7178ZM93.3916 29.5899C92.9306 29.7291 92.4667 29.8764 92 30.0313C91.7503 30.1139 91.5011 30.1928 91.2529 30.2695C91.504 30.5145 91.7546 30.7565 92.0049 30.9951C92.4657 30.5559 92.9279 30.1053 93.3906 29.6445C93.3907 29.6263 93.3915 29.6081 93.3916 29.5899ZM88.5908 28.4307C87.8293 29.239 87.1013 30.0396 86.4111 30.8252C87.5852 30.618 88.7856 30.3469 90.0088 30.0068C90.0085 29.9652 90.0081 29.9235 90.0078 29.8818C89.5241 29.3973 89.0512 28.9133 88.5908 28.4307ZM93.2178 26.1738C92.8763 26.2762 92.5331 26.384 92.1885 26.4981C91.6561 26.6747 91.1267 26.8391 90.6016 26.9951C90.6002 27.3286 90.5996 27.6636 90.5996 28C90.5996 28.5478 90.6034 29.0919 90.6065 29.6318C90.659 29.6842 90.7121 29.736 90.7647 29.7881C90.8755 29.7548 90.9874 29.7239 91.0986 29.6895L91.8115 29.4619C92.3428 29.2857 92.8705 29.1193 93.3945 28.9629C93.3956 28.6433 93.4004 28.3223 93.4004 28C93.4004 27.4453 93.3973 26.8944 93.3936 26.3477C93.3351 26.2894 93.2763 26.2317 93.2178 26.1738ZM89.7246 27.2471C89.4812 27.4964 89.2411 27.7457 89.0039 27.9941C89.3312 28.3375 89.6646 28.6817 90.0039 29.0264C90.0027 28.6858 90 28.3436 90 28C90 27.7227 90.001 27.4463 90.002 27.1709C89.9096 27.1972 89.8168 27.2214 89.7246 27.2471ZM94 28C94 28.2632 93.9959 28.5256 93.9951 28.7871C94.1082 28.7548 94.2213 28.7238 94.334 28.6924C94.5609 28.4595 94.7845 28.2264 95.0059 27.9941C94.6759 27.6484 94.3391 27.3023 93.9971 26.9551C93.9986 27.3018 94 27.6502 94 28ZM111.69 25.4248C108.135 24.6596 103.609 24.2477 98.5361 24.9912C97.6922 25.9707 96.7886 26.977 95.8311 27.9941C95.9085 28.0763 95.9868 28.1573 96.0635 28.2393C102.176 26.7452 107.646 26.5164 111.816 26.6748C114 26.7578 115.829 26.9483 117.204 27.1172C115.846 26.552 113.97 25.9155 111.69 25.4248ZM88.586 27.5527C88.5875 27.5544 88.5893 27.5559 88.5908 27.5576C88.5937 27.5546 88.5968 27.5518 88.5996 27.5488C88.595 27.55 88.5905 27.5516 88.586 27.5527ZM97.6133 25.1397C96.4314 25.3434 95.2221 25.6111 93.9903 25.9522C93.9907 26 93.9909 26.0478 93.9912 26.0957C94.4785 26.5837 94.954 27.0719 95.418 27.5576C96.1856 26.7415 96.9188 25.9331 97.6133 25.1397ZM78.9961 15.1748C79.493 16.0686 80.2876 17.3132 81.3457 18.7949C83.0113 21.1273 85.3173 24.0279 88.1172 27.0508C88.5449 26.9446 88.9755 26.8313 89.4092 26.7119C89.6066 26.5104 89.8065 26.3091 90.0078 26.1074C90.0156 25.1162 90.0289 24.1391 90.0479 23.1787C87.3968 20.7902 84.884 18.8019 82.8174 17.3203C81.3383 16.26 80.0973 15.4641 79.2031 14.9697C79.0443 14.8819 78.8968 14.8069 78.7647 14.7402C78.8318 14.8717 78.9085 15.0172 78.9961 15.1748ZM92.0049 24.9932C91.5393 25.4375 91.0723 25.8934 90.6045 26.3594C90.6045 26.3623 90.6045 26.3652 90.6045 26.3682C90.828 26.3009 91.0525 26.2331 91.2774 26.1621L92 25.9277C92.2446 25.8468 92.4884 25.7685 92.7315 25.6934C92.4891 25.4569 92.2465 25.2238 92.0049 24.9932ZM90.6367 23.7129C90.6263 24.3053 90.6186 24.9038 90.6123 25.5078C90.9316 25.1939 91.2503 24.8848 91.5684 24.5811C91.2562 24.287 90.9463 23.9966 90.6367 23.7129ZM93.3623 23.7227C93.0564 24.0031 92.7499 24.2895 92.4414 24.5801C92.7559 24.8804 93.0701 25.1869 93.3858 25.4971C93.3796 24.9 93.3726 24.3083 93.3623 23.7227ZM104.808 14.9697C103.913 15.4641 102.672 16.2599 101.192 17.3203C99.1231 18.8038 96.6061 20.7949 93.9512 23.1875C93.9651 23.893 93.9764 24.6075 93.9844 25.3301C95.4323 24.9358 96.8493 24.641 98.2276 24.4307C99.9914 22.373 101.489 20.4425 102.665 18.7949C103.723 17.3133 104.517 16.0686 105.014 15.1748C105.101 15.0172 105.178 14.8717 105.245 14.7402C105.113 14.8069 104.966 14.882 104.808 14.9697ZM91.999 2.79981C91.8103 4.16602 91.6029 6.01582 91.4102 8.24805C91.0721 12.1639 90.7716 17.2413 90.6533 22.919C91.1005 23.3242 91.5519 23.7399 92.0049 24.167C92.4544 23.7432 92.9019 23.3301 93.3457 22.9277C93.2275 17.2486 92.928 12.1723 92.5899 8.25684C92.3967 6.02034 92.1882 4.16766 91.999 2.79981Z" fill="#736344"/>
<path d="M1.12 86.08C0.973333 86.08 0.853333 86.0533 0.76 86C0.666667 85.96 0.62 85.9 0.62 85.82C0.62 85.66 0.806667 85.54 1.18 85.46C1.67333 85.3667 2 85.22 2.16 85.02C2.32 84.82 2.4 84.4933 2.4 84.04V74.98C2.4 74.5267 2.34 74.2067 2.22 74.02C2.1 73.8333 1.79333 73.6867 1.3 73.58C0.913333 73.5 0.72 73.3733 0.72 73.2C0.72 73.12 0.76 73.0533 0.84 73C0.933333 72.9467 1.06 72.92 1.22 72.92C1.56667 72.92 1.86 72.9267 2.1 72.94C2.34 72.9533 2.56667 72.9667 2.78 72.98C3.00667 72.9933 3.25333 73 3.52 73C3.8 73 4.05333 73 4.28 73C4.52 72.9867 4.76667 72.9733 5.02 72.96C5.28667 72.9467 5.58667 72.94 5.92 72.94C6.26667 72.94 6.44 73.0267 6.44 73.2C6.44 73.3067 6.38667 73.3867 6.28 73.44C6.18667 73.4933 6.04667 73.54 5.86 73.58C5.35333 73.7 5 73.8667 4.8 74.08C4.61333 74.2933 4.52 74.5933 4.52 74.98V78.8C4.52 78.8933 4.54667 78.9533 4.6 78.98C4.66667 79.0067 4.73333 79.02 4.8 79.02H11.48C11.6 79.02 11.66 78.9333 11.66 78.76V74.98C11.66 74.6067 11.5667 74.3133 11.38 74.1C11.2067 73.8733 10.86 73.7 10.34 73.58C10.14 73.54 9.99333 73.4933 9.9 73.44C9.80667 73.3867 9.76 73.3067 9.76 73.2C9.76 73.0267 9.92667 72.94 10.26 72.94C10.5933 72.94 10.9 72.9467 11.18 72.96C11.46 72.9733 11.7267 72.9867 11.98 73C12.2467 73 12.52 73 12.8 73C13.0533 73 13.2733 72.9933 13.46 72.98C13.66 72.9667 13.8667 72.9533 14.08 72.94C14.3067 72.9267 14.5933 72.92 14.94 72.92C15.1 72.92 15.2267 72.9467 15.32 73C15.4133 73.0533 15.46 73.12 15.46 73.2C15.46 73.3733 15.2667 73.5 14.88 73.58C14.3867 73.6867 14.08 73.8467 13.96 74.06C13.84 74.26 13.78 74.56 13.78 74.96V84.02C13.78 84.4867 13.8467 84.82 13.98 85.02C14.1267 85.22 14.44 85.3667 14.92 85.46C15.2933 85.54 15.48 85.66 15.48 85.82C15.48 85.9 15.4267 85.96 15.32 86C15.2267 86.0533 15.1067 86.08 14.96 86.08C14.64 86.08 14.3533 86.0667 14.1 86.04C13.86 86.0267 13.6267 86.0133 13.4 86C13.1733 85.9867 12.9267 85.98 12.66 85.98C12.38 85.98 12.12 85.9867 11.88 86C11.6533 86.0133 11.4067 86.0267 11.14 86.04C10.8733 86.0667 10.5733 86.08 10.24 86.08C10.08 86.08 9.95333 86.0533 9.86 86C9.78 85.96 9.74 85.9 9.74 85.82C9.74 85.7133 9.78 85.64 9.86 85.6C9.95333 85.5467 10.1 85.5 10.3 85.46C10.7533 85.3667 11.0933 85.2133 11.32 85C11.5467 84.7867 11.66 84.4733 11.66 84.06V80.2C11.66 80.12 11.6533 80.0533 11.64 80C11.6267 79.9333 11.58 79.9 11.5 79.9H4.68C4.57333 79.9 4.52 79.98 4.52 80.14V83.92C4.52 84.32 4.65333 84.6533 4.92 84.92C5.18667 85.1867 5.55333 85.3667 6.02 85.46C6.22 85.5 6.36667 85.5467 6.46 85.6C6.55333 85.64 6.6 85.7133 6.6 85.82C6.6 85.9 6.55333 85.96 6.46 86C6.36667 86.0533 6.24 86.08 6.08 86.08C5.74667 86.08 5.44 86.0667 5.16 86.04C4.88 86.0267 4.60667 86.0133 4.34 86C4.08667 85.9867 3.81333 85.98 3.52 85.98C3.25333 85.98 3 85.9867 2.76 86C2.52 86.0133 2.26667 86.0267 2 86.04C1.74667 86.0667 1.45333 86.08 1.12 86.08ZM24.6528 86.28C23.7595 86.28 22.9061 86.1267 22.0928 85.82C21.2928 85.5 20.5795 85.0533 19.9528 84.48C19.3261 83.8933 18.8261 83.2 18.4528 82.4C18.0928 81.5867 17.9128 80.6867 17.9128 79.7C17.9128 78.7933 18.0595 77.9267 18.3528 77.1C18.6595 76.26 19.0995 75.5133 19.6728 74.86C20.2595 74.2067 20.9861 73.6867 21.8528 73.3C22.7195 72.9133 23.7128 72.72 24.8328 72.72C25.7395 72.72 26.5928 72.88 27.3928 73.2C28.2061 73.5067 28.9261 73.9533 29.5528 74.54C30.1795 75.1133 30.6728 75.8067 31.0328 76.62C31.4061 77.42 31.5928 78.3133 31.5928 79.3C31.5928 80.1933 31.4395 81.06 31.1328 81.9C30.8395 82.74 30.3995 83.4867 29.8128 84.14C29.2395 84.7933 28.5195 85.3133 27.6528 85.7C26.7861 86.0867 25.7861 86.28 24.6528 86.28ZM24.9728 85.44C25.9061 85.44 26.6795 85.2267 27.2928 84.8C27.9195 84.36 28.3861 83.7533 28.6928 82.98C29.0128 82.2067 29.1728 81.3133 29.1728 80.3C29.1728 79.4067 29.0728 78.56 28.8728 77.76C28.6861 76.96 28.3995 76.2467 28.0128 75.62C27.6261 74.98 27.1395 74.4867 26.5528 74.14C25.9661 73.78 25.2795 73.6 24.4928 73.6C23.5861 73.6 22.8195 73.8133 22.1928 74.24C21.5795 74.6667 21.1128 75.26 20.7928 76.02C20.4861 76.78 20.3328 77.6667 20.3328 78.68C20.3328 79.5867 20.4261 80.44 20.6128 81.24C20.7995 82.04 21.0861 82.76 21.4728 83.4C21.8595 84.0267 22.3395 84.5267 22.9128 84.9C23.4995 85.26 24.1861 85.44 24.9728 85.44ZM37.7966 86.08C37.6499 86.08 37.5232 86.06 37.4166 86.02C37.3099 85.9933 37.2566 85.9333 37.2566 85.84C37.2566 85.7467 37.3099 85.6733 37.4166 85.62C37.5232 85.5533 37.6699 85.5 37.8566 85.46C38.3632 85.3667 38.7432 85.2133 38.9966 85C39.2499 84.7867 39.3766 84.4467 39.3766 83.98V76.06C39.3766 75.4733 39.3632 75.0333 39.3366 74.74C39.3099 74.4333 39.2699 74.2267 39.2166 74.12C39.1632 74 39.0899 73.9267 38.9966 73.9C38.8366 73.86 38.6566 73.84 38.4566 73.84C38.2566 73.8267 38.0232 73.82 37.7566 73.82H36.9766C36.6299 73.82 36.2832 73.9 35.9366 74.06C35.6032 74.2067 35.3499 74.42 35.1766 74.7C35.1232 74.78 35.0432 74.8933 34.9366 75.04C34.8432 75.1733 34.7366 75.2933 34.6166 75.4C34.4966 75.4933 34.3766 75.54 34.2566 75.54C34.1899 75.54 34.1366 75.5133 34.0966 75.46C34.0699 75.4067 34.0566 75.34 34.0566 75.26C34.0566 75.1133 34.0966 74.9667 34.1766 74.82C34.3899 74.3933 34.5432 74.02 34.6366 73.7C34.7299 73.38 34.8032 73 34.8566 72.56C34.8832 72.3467 34.9366 72.2133 35.0166 72.16C35.0966 72.1067 35.1766 72.08 35.2566 72.08C35.3232 72.08 35.4099 72.1667 35.5166 72.34C35.6366 72.5 35.7299 72.6333 35.7966 72.74C35.9032 72.86 36.1032 72.9533 36.3966 73.02C36.6899 73.0867 36.9632 73.12 37.2166 73.12L44.4366 73.1C44.8499 73.1 45.1899 73.0733 45.4566 73.02C45.7366 72.9667 45.9632 72.9 46.1366 72.82C46.3232 72.7267 46.4699 72.6267 46.5766 72.52C46.6832 72.4 46.8232 72.34 46.9966 72.34C47.0499 72.34 47.0899 72.3867 47.1166 72.48C47.1432 72.56 47.1566 72.6533 47.1566 72.76C47.1566 72.8133 47.1499 72.8933 47.1366 73C47.1232 73.1067 47.1099 73.1933 47.0966 73.26C47.0432 73.5133 46.9899 73.7133 46.9366 73.86C46.8966 74.0067 46.8632 74.1467 46.8366 74.28C46.8232 74.4 46.8166 74.56 46.8166 74.76V75.04C46.8166 75.2 46.7899 75.3533 46.7366 75.5C46.6832 75.6467 46.6032 75.72 46.4966 75.72C46.3899 75.72 46.3032 75.6533 46.2366 75.52C46.1699 75.3733 46.1032 75.1667 46.0366 74.9C45.9566 74.5533 45.7766 74.2867 45.4966 74.1C45.2299 73.9133 44.7832 73.82 44.1566 73.82H42.4766C42.2099 73.82 42.0032 73.8667 41.8566 73.96C41.7099 74.04 41.6099 74.24 41.5566 74.56C41.5166 74.8667 41.4966 75.3667 41.4966 76.06V83.98C41.4966 84.4333 41.6232 84.7667 41.8766 84.98C42.1432 85.1933 42.5299 85.3533 43.0366 85.46C43.2232 85.5 43.3632 85.5467 43.4566 85.6C43.5632 85.6533 43.6166 85.7333 43.6166 85.84C43.6166 85.92 43.5699 85.98 43.4766 86.02C43.3832 86.06 43.2566 86.08 43.0966 86.08C42.7632 86.08 42.4566 86.0667 42.1766 86.04C41.8966 86.0267 41.6232 86.0133 41.3566 86C41.0899 85.9867 40.8099 85.98 40.5166 85.98C40.1966 85.98 39.8966 85.9867 39.6166 86C39.3366 86.0133 39.0499 86.0267 38.7566 86.04C38.4632 86.0667 38.1432 86.08 37.7966 86.08ZM50.0908 86.1C49.9308 86.1 49.8041 86.08 49.7108 86.04C49.6174 86 49.5708 85.94 49.5708 85.86C49.5708 85.6867 49.7641 85.56 50.1508 85.48C50.6441 85.3733 50.9974 85.2267 51.2108 85.04C51.4374 84.84 51.5508 84.5067 51.5508 84.04V75C51.5508 74.5467 51.4574 74.22 51.2708 74.02C51.0841 73.82 50.7441 73.6733 50.2508 73.58C50.0508 73.54 49.9041 73.4867 49.8108 73.42C49.7174 73.3533 49.6708 73.2733 49.6708 73.18C49.6708 73.1 49.7174 73.04 49.8108 73C49.9041 72.9467 50.0308 72.92 50.1908 72.92C50.6308 72.92 51.0241 72.9267 51.3708 72.94C51.7308 72.9533 52.0774 72.9667 52.4108 72.98C52.7574 72.9933 53.1308 73 53.5308 73C54.0641 73 54.6241 73 55.2108 73C55.8108 72.9867 56.3508 72.9733 56.8308 72.96C57.2841 72.96 57.6575 72.9533 57.9508 72.94C58.2574 72.9133 58.4374 72.9 58.4908 72.9C58.5708 72.9 58.6508 72.92 58.7308 72.96C58.8241 72.9867 58.8774 73.0467 58.8908 73.14C58.9574 73.5533 59.0241 73.96 59.0908 74.36C59.1708 74.7467 59.2108 75.0867 59.2108 75.38C59.2108 75.5133 59.1774 75.6067 59.1108 75.66C59.0574 75.7 58.9974 75.72 58.9308 75.72C58.8641 75.72 58.8108 75.7 58.7708 75.66C58.7308 75.62 58.6908 75.56 58.6508 75.48C58.5574 75.2133 58.4708 74.9733 58.3908 74.76C58.3108 74.5333 58.2174 74.3667 58.1108 74.26C57.9374 74.0733 57.7374 73.9333 57.5108 73.84C57.2841 73.7467 57.0308 73.7 56.7508 73.7H54.5108C54.3374 73.7 54.1508 73.7667 53.9508 73.9C53.7641 74.02 53.6708 74.1933 53.6708 74.42V78.5C53.6708 78.6333 53.7108 78.74 53.7908 78.82C53.8708 78.9 53.9641 78.94 54.0708 78.94H55.9708C56.3574 78.94 56.6241 78.8533 56.7708 78.68C56.9174 78.5067 57.0374 78.24 57.1308 77.88C57.2241 77.6133 57.3508 77.48 57.5108 77.48C57.5775 77.48 57.6374 77.5133 57.6908 77.58C57.7441 77.6333 57.7708 77.72 57.7708 77.84C57.7708 77.92 57.7641 78.0533 57.7508 78.24C57.7374 78.4267 57.7241 78.62 57.7108 78.82C57.6974 79.02 57.6908 79.18 57.6908 79.3C57.6908 79.4467 57.6908 79.6267 57.6908 79.84C57.7041 80.04 57.7174 80.24 57.7308 80.44C57.7441 80.64 57.7508 80.7867 57.7508 80.88C57.7641 81 57.7508 81.1 57.7108 81.18C57.6841 81.2467 57.6374 81.28 57.5708 81.28C57.3574 81.28 57.1974 81.0867 57.0908 80.7C57.0108 80.3533 56.8974 80.0933 56.7508 79.92C56.6174 79.7467 56.4174 79.66 56.1508 79.66H54.2908C54.0774 79.66 53.9174 79.6933 53.8108 79.76C53.7174 79.8267 53.6708 79.9667 53.6708 80.18V84C53.6708 84.4667 53.7708 84.7933 53.9708 84.98C54.1708 85.1533 54.4774 85.24 54.8908 85.24H56.4708C56.8441 85.24 57.1708 85.2133 57.4508 85.16C57.7308 85.1067 57.9708 85.0067 58.1708 84.86C58.3974 84.7 58.5974 84.4933 58.7708 84.24C58.9441 83.9867 59.1241 83.6733 59.3108 83.3C59.3641 83.22 59.4174 83.16 59.4708 83.12C59.5241 83.0667 59.5841 83.0467 59.6508 83.06C59.7308 83.06 59.7841 83.0933 59.8108 83.16C59.8508 83.2133 59.8708 83.2867 59.8708 83.38C59.8708 83.5267 59.8374 83.7467 59.7708 84.04C59.7041 84.3333 59.6174 84.64 59.5108 84.96C59.4174 85.28 59.3308 85.5533 59.2508 85.78C59.2108 85.8733 59.1641 85.9467 59.1108 86C59.0574 86.0667 58.9908 86.1 58.9108 86.1C58.4308 86.1 57.9308 86.0933 57.4108 86.08C56.8908 86.0667 56.3574 86.0533 55.8108 86.04C55.2641 86.0267 54.7174 86.0133 54.1708 86C53.6241 85.9867 53.0841 85.98 52.5508 85.98C52.2708 85.98 52.0041 85.9867 51.7508 86C51.4974 86.0267 51.2374 86.0467 50.9708 86.06C50.7174 86.0867 50.4241 86.1 50.0908 86.1ZM63.118 86.1C62.9713 86.1 62.8513 86.0733 62.758 86.02C62.6646 85.9667 62.618 85.9067 62.618 85.84C62.618 85.7333 62.6713 85.6533 62.778 85.6C62.8846 85.5333 62.9713 85.4933 63.038 85.48C63.5446 85.36 63.918 85.2067 64.158 85.02C64.4113 84.8333 64.538 84.52 64.538 84.08V74.86C64.538 74.54 64.5046 74.3067 64.438 74.16C64.3713 74 64.2446 73.88 64.058 73.8C63.8846 73.72 63.6313 73.6467 63.298 73.58C62.9113 73.5 62.718 73.3667 62.718 73.18C62.718 73.0867 62.7646 73.02 62.858 72.98C62.9646 72.94 63.0913 72.92 63.238 72.92C63.5713 72.92 63.8713 72.9267 64.138 72.94C64.4046 72.9533 64.658 72.9667 64.898 72.98C65.138 72.9933 65.4046 73 65.698 73C66.0046 73 66.298 73 66.578 73C66.858 72.9867 67.1446 72.9733 67.438 72.96C67.7313 72.9467 68.0446 72.94 68.378 72.94C68.538 72.94 68.658 72.96 68.738 73C68.8313 73.0267 68.878 73.0867 68.878 73.18C68.878 73.2867 68.8313 73.3733 68.738 73.44C68.6446 73.4933 68.498 73.54 68.298 73.58C67.7913 73.7 67.3913 73.8333 67.098 73.98C66.8046 74.1133 66.658 74.3733 66.658 74.76V84.02C66.658 84.4333 66.7446 84.7333 66.918 84.92C67.1046 85.0933 67.478 85.18 68.038 85.18H70.358C70.7046 85.18 71.0046 85.1267 71.258 85.02C71.5246 84.9133 71.7313 84.7933 71.878 84.66C72.1313 84.4333 72.3246 84.22 72.458 84.02C72.6046 83.8067 72.758 83.5267 72.918 83.18C72.9846 83.0333 73.058 82.8933 73.138 82.76C73.218 82.6267 73.3046 82.56 73.398 82.56C73.4913 82.56 73.558 82.6067 73.598 82.7C73.638 82.78 73.658 82.86 73.658 82.94C73.658 82.9667 73.6513 83 73.638 83.04C73.6246 83.08 73.618 83.12 73.618 83.16C73.5246 83.52 73.438 83.84 73.358 84.12C73.278 84.4 73.2113 84.6667 73.158 84.92C73.118 85.1733 73.0846 85.4467 73.058 85.74C73.0446 85.8333 73.018 85.92 72.978 86C72.938 86.0667 72.8646 86.1 72.758 86.1C72.238 86.1 71.6846 86.0933 71.098 86.08C70.5113 86.0667 69.918 86.0533 69.318 86.04C68.718 86.04 68.1246 86.0333 67.538 86.02C66.9646 86.0067 66.4113 86 65.878 86C65.558 86 65.198 86.0067 64.798 86.02C64.4113 86.0333 64.0513 86.0467 63.718 86.06C63.398 86.0867 63.198 86.1 63.118 86.1ZM82.675 86.1C82.5283 86.1 82.4083 86.0733 82.315 86.02C82.2217 85.9667 82.175 85.9067 82.175 85.84C82.175 85.7333 82.2283 85.6533 82.335 85.6C82.4417 85.5333 82.5283 85.4933 82.595 85.48C83.1017 85.36 83.475 85.2067 83.715 85.02C83.9683 84.8333 84.095 84.52 84.095 84.08V74.86C84.095 74.54 84.0617 74.3067 83.995 74.16C83.9283 74 83.8017 73.88 83.615 73.8C83.4417 73.72 83.1883 73.6467 82.855 73.58C82.4683 73.5 82.275 73.3667 82.275 73.18C82.275 73.0867 82.3217 73.02 82.415 72.98C82.5217 72.94 82.6483 72.92 82.795 72.92C83.1283 72.92 83.4283 72.9267 83.695 72.94C83.9617 72.9533 84.215 72.9667 84.455 72.98C84.695 72.9933 84.9617 73 85.255 73C85.5617 73 85.855 73 86.135 73C86.415 72.9867 86.7017 72.9733 86.995 72.96C87.2883 72.9467 87.6017 72.94 87.935 72.94C88.095 72.94 88.215 72.96 88.295 73C88.3883 73.0267 88.435 73.0867 88.435 73.18C88.435 73.2867 88.3883 73.3733 88.295 73.44C88.2017 73.4933 88.055 73.54 87.855 73.58C87.3483 73.7 86.9483 73.8333 86.655 73.98C86.3617 74.1133 86.215 74.3733 86.215 74.76V84.02C86.215 84.4333 86.3017 84.7333 86.475 84.92C86.6617 85.0933 87.035 85.18 87.595 85.18H89.915C90.2617 85.18 90.5617 85.1267 90.815 85.02C91.0817 84.9133 91.2883 84.7933 91.435 84.66C91.6883 84.4333 91.8817 84.22 92.015 84.02C92.1617 83.8067 92.315 83.5267 92.475 83.18C92.5417 83.0333 92.615 82.8933 92.695 82.76C92.775 82.6267 92.8617 82.56 92.955 82.56C93.0483 82.56 93.115 82.6067 93.155 82.7C93.195 82.78 93.215 82.86 93.215 82.94C93.215 82.9667 93.2083 83 93.195 83.04C93.1817 83.08 93.175 83.12 93.175 83.16C93.0817 83.52 92.995 83.84 92.915 84.12C92.835 84.4 92.7683 84.6667 92.715 84.92C92.675 85.1733 92.6417 85.4467 92.615 85.74C92.6017 85.8333 92.575 85.92 92.535 86C92.495 86.0667 92.4217 86.1 92.315 86.1C91.795 86.1 91.2417 86.0933 90.655 86.08C90.0683 86.0667 89.475 86.0533 88.875 86.04C88.275 86.04 87.6817 86.0333 87.095 86.02C86.5217 86.0067 85.9683 86 85.435 86C85.115 86 84.755 86.0067 84.355 86.02C83.9683 86.0333 83.6083 86.0467 83.275 86.06C82.955 86.0867 82.755 86.1 82.675 86.1ZM102.214 86.28C101.014 86.28 100.008 86.0667 99.1942 85.64C98.3809 85.2133 97.7675 84.6133 97.3542 83.84C96.9409 83.0533 96.7342 82.14 96.7342 81.1V75.12C96.7342 74.68 96.6409 74.3333 96.4542 74.08C96.2809 73.8267 96.0609 73.6733 95.7942 73.62C95.3675 73.5 95.1542 73.3533 95.1542 73.18C95.1542 73.0867 95.2075 73.02 95.3142 72.98C95.4209 72.94 95.5542 72.92 95.7142 72.92C96.0609 72.92 96.4142 72.9333 96.7742 72.96C97.1342 72.9867 97.5009 73 97.8742 73C98.2075 73 98.5542 72.9933 98.9142 72.98C99.2742 72.9533 99.5942 72.94 99.8742 72.94C100.048 72.94 100.181 72.96 100.274 73C100.381 73.04 100.434 73.1067 100.434 73.2C100.434 73.3067 100.361 73.3933 100.214 73.46C100.081 73.5133 99.9009 73.58 99.6742 73.66C99.5009 73.7267 99.3209 73.8867 99.1342 74.14C98.9609 74.38 98.8742 74.7133 98.8742 75.14V80.62C98.8742 81.6333 99.0409 82.4667 99.3742 83.12C99.7075 83.7733 100.168 84.2533 100.754 84.56C101.341 84.8667 102.001 85.02 102.734 85.02C104.054 85.02 105.021 84.5867 105.634 83.72C106.261 82.84 106.574 81.6333 106.574 80.1C106.574 79.7933 106.574 79.4067 106.574 78.94C106.574 78.4733 106.568 77.98 106.554 77.46C106.554 76.94 106.548 76.4467 106.534 75.98C106.521 75.54 106.481 75.1667 106.414 74.86C106.361 74.54 106.268 74.2733 106.134 74.06C106.001 73.8467 105.828 73.7067 105.614 73.64C105.481 73.5867 105.328 73.5267 105.154 73.46C104.994 73.3933 104.914 73.3067 104.914 73.2C104.914 73.12 104.968 73.06 105.074 73.02C105.181 72.98 105.321 72.96 105.494 72.96C105.868 72.96 106.161 72.9667 106.374 72.98C106.588 72.9933 106.848 73 107.154 73C107.381 73 107.581 72.9933 107.754 72.98C107.941 72.9667 108.121 72.9533 108.294 72.94C108.468 72.9267 108.648 72.92 108.834 72.92C108.994 72.92 109.128 72.94 109.234 72.98C109.341 73.02 109.394 73.0867 109.394 73.18C109.394 73.3533 109.188 73.4867 108.774 73.58C108.388 73.6733 108.114 73.8533 107.954 74.12C107.808 74.3867 107.721 74.74 107.694 75.18C107.628 76.2733 107.588 77.28 107.574 78.2C107.561 79.1067 107.541 80.0133 107.514 80.92C107.501 81.96 107.254 82.8867 106.774 83.7C106.308 84.5133 105.681 85.1467 104.894 85.6C104.108 86.0533 103.214 86.28 102.214 86.28ZM118.519 86.28C117.586 86.28 116.699 86.12 115.859 85.8C115.032 85.48 114.292 85.0267 113.639 84.44C112.999 83.8533 112.492 83.16 112.119 82.36C111.746 81.56 111.559 80.6933 111.559 79.76C111.559 78.8 111.746 77.8933 112.119 77.04C112.492 76.1867 113.019 75.44 113.699 74.8C114.379 74.16 115.166 73.66 116.059 73.3C116.966 72.9267 117.946 72.74 118.999 72.74C119.239 72.74 119.546 72.76 119.919 72.8C120.306 72.84 120.706 72.8933 121.119 72.96C121.532 73.0267 121.906 73.1 122.239 73.18C122.586 73.26 122.839 73.34 122.999 73.42C123.079 73.4467 123.139 73.4867 123.179 73.54C123.219 73.58 123.246 73.6467 123.259 73.74C123.312 74.1533 123.359 74.56 123.399 74.96C123.439 75.3467 123.459 75.6733 123.459 75.94C123.459 76.0467 123.426 76.14 123.359 76.22C123.306 76.3 123.239 76.34 123.159 76.34C123.012 76.34 122.906 76.2867 122.839 76.18C122.772 76.0733 122.712 75.96 122.659 75.84C122.566 75.6133 122.466 75.4067 122.359 75.22C122.252 75.02 122.106 74.82 121.919 74.62C121.812 74.4867 121.632 74.3467 121.379 74.2C121.139 74.04 120.819 73.9 120.419 73.78C120.032 73.66 119.552 73.6 118.979 73.6C118.219 73.6 117.532 73.76 116.919 74.08C116.306 74.3867 115.786 74.8133 115.359 75.36C114.932 75.9067 114.606 76.5267 114.379 77.22C114.152 77.9133 114.039 78.64 114.039 79.4C114.039 80.3333 114.159 81.1733 114.399 81.92C114.652 82.6667 114.992 83.3 115.419 83.82C115.859 84.34 116.372 84.74 116.959 85.02C117.546 85.2867 118.166 85.42 118.819 85.42C119.446 85.42 119.912 85.34 120.219 85.18C120.539 85.02 120.759 84.8867 120.879 84.78C121.026 84.6467 121.152 84.4533 121.259 84.2C121.379 83.9333 121.439 83.64 121.439 83.32C121.439 83.2 121.439 83.06 121.439 82.9C121.452 82.74 121.459 82.58 121.459 82.42C121.472 82.2467 121.479 82.1 121.479 81.98C121.479 81.8333 121.459 81.7067 121.419 81.6C121.392 81.4933 121.339 81.4067 121.259 81.34C121.139 81.22 120.966 81.1267 120.739 81.06C120.512 80.98 120.286 80.92 120.059 80.88C119.846 80.84 119.672 80.8133 119.539 80.8C119.459 80.8 119.366 80.7667 119.259 80.7C119.152 80.62 119.099 80.5267 119.099 80.42C119.099 80.3267 119.152 80.2533 119.259 80.2C119.366 80.1333 119.452 80.1 119.519 80.1C119.839 80.1 120.139 80.1067 120.419 80.12C120.712 80.1333 121.006 80.1467 121.299 80.16C121.592 80.1733 121.906 80.18 122.239 80.18C122.586 80.18 122.912 80.1667 123.219 80.14C123.539 80.1133 123.886 80.1 124.259 80.1C124.326 80.1 124.406 80.1267 124.499 80.18C124.592 80.22 124.639 80.3 124.639 80.42C124.639 80.5267 124.586 80.6133 124.479 80.68C124.386 80.7467 124.306 80.7867 124.239 80.8C123.919 80.8933 123.692 81.0133 123.559 81.16C123.439 81.3067 123.359 81.5133 123.319 81.78C123.279 82.0733 123.252 82.3333 123.239 82.56C123.226 82.7867 123.219 83.0267 123.219 83.28V83.86C123.219 83.9267 123.232 83.9867 123.259 84.04C123.299 84.08 123.339 84.1333 123.379 84.2C123.419 84.2667 123.466 84.3333 123.519 84.4C123.586 84.4533 123.619 84.5133 123.619 84.58C123.619 84.6333 123.599 84.7067 123.559 84.8C123.532 84.88 123.446 84.9333 123.299 84.96C123.206 84.9733 123.019 85.0533 122.739 85.2C122.472 85.3333 122.132 85.4867 121.719 85.66C121.319 85.82 120.846 85.96 120.299 86.08C119.766 86.2133 119.172 86.28 118.519 86.28ZM139.891 86.42C139.411 86.42 138.977 86.3667 138.591 86.26C138.217 86.1667 137.877 86.02 137.571 85.82C137.277 85.62 137.011 85.3733 136.771 85.08C136.464 84.68 136.164 84.2933 135.871 83.92C135.591 83.5467 135.297 83.1267 134.991 82.66C134.684 82.18 134.324 81.6 133.911 80.92C133.737 80.5867 133.491 80.34 133.171 80.18C132.944 80.06 132.711 79.98 132.471 79.94C132.244 79.8867 132.057 79.8533 131.911 79.84C131.817 79.84 131.744 79.88 131.691 79.96C131.651 80.0267 131.631 80.12 131.631 80.24V83.86C131.631 84.2867 131.737 84.64 131.951 84.92C132.164 85.1867 132.531 85.3667 133.051 85.46C133.237 85.5 133.377 85.5467 133.471 85.6C133.577 85.6533 133.631 85.7333 133.631 85.84C133.631 85.92 133.584 85.98 133.491 86.02C133.397 86.06 133.271 86.08 133.111 86.08C132.777 86.08 132.477 86.0667 132.211 86.04C131.957 86.0267 131.711 86.0133 131.471 86C131.244 85.9733 131.004 85.96 130.751 85.96C130.431 85.96 130.124 85.9733 129.831 86C129.551 86.0133 129.264 86.0267 128.971 86.04C128.691 86.0667 128.377 86.08 128.031 86.08C127.884 86.08 127.757 86.06 127.651 86.02C127.557 85.9933 127.511 85.9333 127.511 85.84C127.511 85.6667 127.704 85.54 128.091 85.46C128.597 85.3667 128.957 85.22 129.171 85.02C129.397 84.82 129.511 84.4867 129.511 84.02V75.34C129.511 74.8867 129.484 74.5467 129.431 74.32C129.377 74.08 129.264 73.9133 129.091 73.82C128.931 73.7133 128.671 73.6333 128.311 73.58C128.097 73.5533 127.944 73.5067 127.851 73.44C127.757 73.36 127.711 73.2733 127.711 73.18C127.711 73.1 127.757 73.04 127.851 73C127.957 72.9467 128.084 72.92 128.231 72.92C128.617 72.92 128.917 72.9267 129.131 72.94C129.344 72.9533 129.544 72.9667 129.731 72.98C129.931 72.98 130.177 72.98 130.471 72.98C130.737 72.98 130.977 72.9733 131.191 72.96C131.404 72.9333 131.644 72.9133 131.911 72.9C132.177 72.8733 132.517 72.86 132.931 72.86C134.424 72.86 135.564 73.1333 136.351 73.68C137.151 74.2133 137.551 75.0267 137.551 76.12C137.551 76.72 137.424 77.2333 137.171 77.66C136.931 78.0867 136.624 78.44 136.251 78.72C135.877 79 135.504 79.22 135.131 79.38C135.077 79.3933 135.051 79.4267 135.051 79.48C135.064 79.52 135.084 79.5733 135.111 79.64C135.524 80.2533 135.917 80.84 136.291 81.4C136.677 81.9467 137.084 82.48 137.511 83C137.951 83.5067 138.451 84.02 139.011 84.54C139.384 84.8867 139.771 85.0933 140.171 85.16C140.584 85.2267 141.024 85.26 141.491 85.26C141.691 85.26 141.791 85.3533 141.791 85.54C141.791 85.7667 141.684 85.94 141.471 86.06C141.271 86.1933 141.024 86.2867 140.731 86.34C140.437 86.3933 140.157 86.42 139.891 86.42ZM132.591 79.32C133.164 79.32 133.651 79.1933 134.051 78.94C134.464 78.6733 134.777 78.3267 134.991 77.9C135.217 77.46 135.331 76.9867 135.331 76.48C135.331 75.9067 135.257 75.4 135.111 74.96C134.964 74.52 134.697 74.18 134.311 73.94C133.924 73.6867 133.371 73.56 132.651 73.56C132.277 73.56 132.024 73.6933 131.891 73.96C131.757 74.2133 131.684 74.7 131.671 75.42C131.657 75.74 131.644 76.1667 131.631 76.7C131.631 77.2333 131.631 77.8667 131.631 78.6C131.631 78.92 131.717 79.12 131.891 79.2C132.064 79.28 132.297 79.32 132.591 79.32ZM141.566 86.1C141.406 86.1 141.273 86.0733 141.166 86.02C141.06 85.98 141.006 85.9133 141.006 85.82C141.006 85.7133 141.06 85.6267 141.166 85.56C141.273 85.4933 141.42 85.4267 141.606 85.36C141.966 85.2533 142.293 85.0933 142.586 84.88C142.88 84.6667 143.12 84.34 143.306 83.9C143.666 83.0867 144 82.3133 144.306 81.58C144.613 80.8333 144.906 80.1 145.186 79.38C145.466 78.66 145.753 77.92 146.046 77.16C146.34 76.3867 146.64 75.5667 146.946 74.7C147.066 74.3933 147.153 74.14 147.206 73.94C147.26 73.7267 147.293 73.54 147.306 73.38C147.48 73.34 147.64 73.3 147.786 73.26C147.933 73.2067 148.093 73.1333 148.266 73.04C148.426 72.96 148.546 72.8467 148.626 72.7C148.72 72.54 148.793 72.4267 148.846 72.36C148.873 72.3467 148.9 72.34 148.926 72.34C148.966 72.3267 149 72.3467 149.026 72.4C149.066 72.4667 149.093 72.54 149.106 72.62C149.133 72.7 149.16 72.7867 149.186 72.88C149.493 73.8533 149.806 74.8467 150.126 75.86C150.46 76.86 150.786 77.84 151.106 78.8C151.426 79.76 151.726 80.6533 152.006 81.48C152.286 82.2933 152.526 83.0067 152.726 83.62C152.873 84.06 153.046 84.4 153.246 84.64C153.446 84.8667 153.66 85.04 153.886 85.16C154.113 85.2667 154.36 85.3467 154.626 85.4C154.826 85.44 154.973 85.5 155.066 85.58C155.173 85.66 155.226 85.7533 155.226 85.86C155.226 85.94 155.173 85.9933 155.066 86.02C154.973 86.06 154.853 86.08 154.706 86.08C154.493 86.08 154.213 86.0667 153.866 86.04C153.52 86.0267 153.16 86.0133 152.786 86C152.413 85.9867 152.073 85.98 151.766 85.98C151.513 85.98 151.233 85.98 150.926 85.98C150.62 85.98 150.326 85.9867 150.046 86C149.78 86.0133 149.546 86.02 149.346 86.02C149.186 86.02 149.053 86 148.946 85.96C148.853 85.9067 148.806 85.84 148.806 85.76C148.806 85.6533 148.866 85.5667 148.986 85.5C149.106 85.4333 149.246 85.3867 149.406 85.36C149.86 85.28 150.186 85.16 150.386 85C150.6 84.84 150.686 84.6267 150.646 84.36C150.633 84.1333 150.586 83.8533 150.506 83.52C150.426 83.1733 150.333 82.8133 150.226 82.44C150.12 82.0533 150.02 81.7 149.926 81.38C149.9 81.2733 149.853 81.2067 149.786 81.18C149.72 81.1533 149.606 81.14 149.446 81.14H145.746C145.68 81.14 145.62 81.1667 145.566 81.22C145.513 81.26 145.46 81.3467 145.406 81.48C145.366 81.64 145.3 81.8467 145.206 82.1C145.126 82.34 145.046 82.6 144.966 82.88C144.886 83.1467 144.813 83.4 144.746 83.64C144.693 83.8667 144.66 84.0333 144.646 84.14C144.606 84.4733 144.686 84.74 144.886 84.94C145.1 85.1267 145.413 85.2733 145.826 85.38C146.226 85.4867 146.426 85.62 146.426 85.78C146.426 85.8733 146.373 85.94 146.266 85.98C146.173 86.0067 146.046 86.02 145.886 86.02C145.633 86.02 145.34 86.0133 145.006 86C144.673 85.9867 144.32 85.98 143.946 85.98C143.52 85.98 143.106 86 142.706 86.04C142.306 86.08 141.926 86.1 141.566 86.1ZM146.306 80.32H149.226C149.413 80.32 149.506 80.2867 149.506 80.22C149.506 80.18 149.5 80.1467 149.486 80.12C149.486 80.0933 149.48 80.0533 149.466 80L147.986 75.26C147.92 75.0467 147.866 74.94 147.826 74.94C147.8 74.94 147.753 75.04 147.686 75.24L145.946 80C145.92 80.08 145.906 80.1333 145.906 80.16C145.906 80.2267 145.94 80.2733 146.006 80.3C146.086 80.3133 146.186 80.32 146.306 80.32ZM164.483 86.3C163.523 86.3 162.596 86.14 161.703 85.82C160.823 85.5 160.043 85.0467 159.363 84.46C158.683 83.8733 158.143 83.1667 157.743 82.34C157.356 81.5133 157.163 80.5933 157.163 79.58C157.163 78.6333 157.363 77.7467 157.763 76.92C158.163 76.08 158.716 75.3533 159.423 74.74C160.143 74.1133 160.976 73.6267 161.923 73.28C162.869 72.92 163.896 72.74 165.003 72.74C165.496 72.74 165.936 72.7667 166.323 72.82C166.709 72.86 167.083 72.92 167.443 73C167.803 73.08 168.189 73.1867 168.603 73.32C168.776 73.3733 168.903 73.4467 168.983 73.54C169.076 73.6333 169.129 73.7733 169.143 73.96C169.183 74.3067 169.216 74.6667 169.243 75.04C169.283 75.4133 169.309 75.8267 169.323 76.28C169.323 76.4 169.269 76.4867 169.163 76.54C169.069 76.5933 168.963 76.6067 168.843 76.58C168.723 76.54 168.643 76.4467 168.603 76.3C168.483 75.86 168.343 75.4667 168.183 75.12C168.023 74.7733 167.789 74.4867 167.483 74.26C167.176 74.02 166.783 73.8333 166.303 73.7C165.836 73.5667 165.309 73.5 164.723 73.5C163.976 73.5 163.289 73.6533 162.663 73.96C162.036 74.2667 161.503 74.6867 161.063 75.22C160.623 75.74 160.276 76.3333 160.023 77C159.783 77.6667 159.663 78.36 159.663 79.08C159.663 79.92 159.776 80.7267 160.003 81.5C160.243 82.2733 160.583 82.96 161.023 83.56C161.476 84.16 162.023 84.64 162.663 85C163.303 85.3467 164.023 85.52 164.823 85.52C165.783 85.52 166.576 85.3067 167.203 84.88C167.829 84.44 168.356 83.8133 168.783 83C168.876 82.8133 169.016 82.72 169.203 82.72C169.389 82.72 169.483 82.8267 169.483 83.04C169.483 83.1733 169.456 83.36 169.403 83.6C169.363 83.8267 169.303 84.08 169.223 84.36C169.143 84.6267 169.063 84.8733 168.983 85.1C168.903 85.2733 168.829 85.3933 168.763 85.46C168.696 85.5267 168.569 85.5933 168.383 85.66C167.876 85.8733 167.276 86.0333 166.583 86.14C165.903 86.2467 165.203 86.3 164.483 86.3ZM173.502 86.1C173.342 86.1 173.215 86.08 173.122 86.04C173.028 86 172.982 85.94 172.982 85.86C172.982 85.6867 173.175 85.56 173.562 85.48C174.055 85.3733 174.408 85.2267 174.622 85.04C174.848 84.84 174.962 84.5067 174.962 84.04V75C174.962 74.5467 174.868 74.22 174.682 74.02C174.495 73.82 174.155 73.6733 173.662 73.58C173.462 73.54 173.315 73.4867 173.222 73.42C173.128 73.3533 173.082 73.2733 173.082 73.18C173.082 73.1 173.128 73.04 173.222 73C173.315 72.9467 173.442 72.92 173.602 72.92C174.042 72.92 174.435 72.9267 174.782 72.94C175.142 72.9533 175.488 72.9667 175.822 72.98C176.168 72.9933 176.542 73 176.942 73C177.475 73 178.035 73 178.622 73C179.222 72.9867 179.762 72.9733 180.242 72.96C180.695 72.96 181.068 72.9533 181.362 72.94C181.668 72.9133 181.848 72.9 181.902 72.9C181.982 72.9 182.062 72.92 182.142 72.96C182.235 72.9867 182.288 73.0467 182.302 73.14C182.368 73.5533 182.435 73.96 182.502 74.36C182.582 74.7467 182.622 75.0867 182.622 75.38C182.622 75.5133 182.588 75.6067 182.522 75.66C182.468 75.7 182.408 75.72 182.342 75.72C182.275 75.72 182.222 75.7 182.182 75.66C182.142 75.62 182.102 75.56 182.062 75.48C181.968 75.2133 181.882 74.9733 181.802 74.76C181.722 74.5333 181.628 74.3667 181.522 74.26C181.348 74.0733 181.148 73.9333 180.922 73.84C180.695 73.7467 180.442 73.7 180.162 73.7H177.922C177.748 73.7 177.562 73.7667 177.362 73.9C177.175 74.02 177.082 74.1933 177.082 74.42V78.5C177.082 78.6333 177.122 78.74 177.202 78.82C177.282 78.9 177.375 78.94 177.482 78.94H179.382C179.768 78.94 180.035 78.8533 180.182 78.68C180.328 78.5067 180.448 78.24 180.542 77.88C180.635 77.6133 180.762 77.48 180.922 77.48C180.988 77.48 181.048 77.5133 181.102 77.58C181.155 77.6333 181.182 77.72 181.182 77.84C181.182 77.92 181.175 78.0533 181.162 78.24C181.148 78.4267 181.135 78.62 181.122 78.82C181.108 79.02 181.102 79.18 181.102 79.3C181.102 79.4467 181.102 79.6267 181.102 79.84C181.115 80.04 181.128 80.24 181.142 80.44C181.155 80.64 181.162 80.7867 181.162 80.88C181.175 81 181.162 81.1 181.122 81.18C181.095 81.2467 181.048 81.28 180.982 81.28C180.768 81.28 180.608 81.0867 180.502 80.7C180.422 80.3533 180.308 80.0933 180.162 79.92C180.028 79.7467 179.828 79.66 179.562 79.66H177.702C177.488 79.66 177.328 79.6933 177.222 79.76C177.128 79.8267 177.082 79.9667 177.082 80.18V84C177.082 84.4667 177.182 84.7933 177.382 84.98C177.582 85.1533 177.888 85.24 178.302 85.24H179.882C180.255 85.24 180.582 85.2133 180.862 85.16C181.142 85.1067 181.382 85.0067 181.582 84.86C181.808 84.7 182.008 84.4933 182.182 84.24C182.355 83.9867 182.535 83.6733 182.722 83.3C182.775 83.22 182.828 83.16 182.882 83.12C182.935 83.0667 182.995 83.0467 183.062 83.06C183.142 83.06 183.195 83.0933 183.222 83.16C183.262 83.2133 183.282 83.2867 183.282 83.38C183.282 83.5267 183.248 83.7467 183.182 84.04C183.115 84.3333 183.028 84.64 182.922 84.96C182.828 85.28 182.742 85.5533 182.662 85.78C182.622 85.8733 182.575 85.9467 182.522 86C182.468 86.0667 182.402 86.1 182.322 86.1C181.842 86.1 181.342 86.0933 180.822 86.08C180.302 86.0667 179.768 86.0533 179.222 86.04C178.675 86.0267 178.128 86.0133 177.582 86C177.035 85.9867 176.495 85.98 175.962 85.98C175.682 85.98 175.415 85.9867 175.162 86C174.908 86.0267 174.648 86.0467 174.382 86.06C174.128 86.0867 173.835 86.1 173.502 86.1Z" fill="#736344"/>
</svg>
