<svg width="40" height="40" viewBox="0 0 40 40" fill="none" xmlns="http://www.w3.org/2000/svg">
<path fill-rule="evenodd" clip-rule="evenodd" d="M20 5.41635e-06C20.3131 0.00708049 21.1732 6.87314 21.3818 16.001C25.8992 11.9742 29.7968 9.59438 30.1045 9.89454L30.1182 9.91504C30.2778 10.2858 28.3713 13.4712 25.0869 17.3604C33.6834 16.2587 40.0049 19.6767 40 19.9854C39.9928 20.3154 32.7399 18.2711 23.2363 20.5322C27.724 25.3981 30.4255 29.7726 30.1055 30.0977C29.8252 30.378 25.9128 28.0142 21.3887 23.9932C21.2102 33.1278 20.4613 40.0104 20 40C19.5229 39.9892 18.785 33.1265 18.6094 24C14.0894 28.016 10.1833 30.3771 9.90236 30.0977C9.62798 29.8213 11.5577 26.5882 14.9238 22.6182C6.31953 23.7599 -0.0099849 20.4398 1.18248e-05 19.9854L0.00684776 19.9619C0.262483 19.5572 7.41773 21.6231 16.749 19.4356C12.3578 14.6598 9.70143 10.3489 9.88966 9.91504L9.90236 9.89454C10.2083 9.59329 14.102 11.9715 18.6172 15.9951C18.8262 6.86701 19.6876 -0.00704357 20 5.41635e-06ZM20.0029 22.7295C19.6781 23.0352 19.353 23.3311 19.0322 23.6211C19.1032 27.6801 19.2854 31.307 19.5088 34.1035C19.6529 35.9072 19.8127 37.3593 19.9697 38.3564C19.9784 38.4113 19.9875 38.4648 19.9961 38.5166C20.0041 38.4681 20.0135 38.4184 20.0215 38.3672C20.1777 37.3709 20.3391 35.9176 20.4844 34.1123C20.7097 31.3119 20.8948 27.6783 20.9668 23.6152C20.6483 23.3272 20.3255 23.0331 20.0029 22.7295ZM18.5801 21.8789C17.5536 22.1597 16.5488 22.3709 15.5713 22.5244C14.3027 23.9983 13.2244 25.3793 12.3789 26.5586C11.6216 27.615 11.0533 28.5019 10.7002 29.1406C10.6374 29.2542 10.5838 29.3596 10.5361 29.4541C10.6301 29.4061 10.734 29.3508 10.8467 29.2881C11.4851 28.9332 12.3735 28.366 13.4317 27.6104C14.9099 26.5547 16.7057 25.1364 18.6006 23.4336C18.5922 22.9218 18.5848 22.4033 18.5801 21.8789ZM22.7617 20.6494C22.4734 20.7219 22.1828 20.7973 21.8906 20.8779C21.7356 21.0365 21.5794 21.1958 21.4209 21.3545C21.4163 22.0554 21.4089 22.7464 21.3975 23.4258C23.2957 25.1321 25.0947 26.5531 26.5752 27.6104C27.6336 28.3662 28.5227 28.9332 29.1611 29.2881C29.274 29.3508 29.3776 29.4061 29.4717 29.4541C29.424 29.3595 29.3705 29.2543 29.3076 29.1406C28.9545 28.5019 28.3863 27.6151 27.6289 26.5586C26.4327 24.89 24.773 22.8148 22.7617 20.6494ZM19.0078 21.7715C19.0115 22.203 19.0182 22.6306 19.0244 23.0537C19.2459 22.8512 19.4681 22.6446 19.6914 22.4346C19.4638 22.2174 19.2362 21.9959 19.0078 21.7715ZM20.9912 21.7793C20.7653 22.0013 20.5396 22.2198 20.3145 22.4346C20.5355 22.6425 20.7554 22.8473 20.9746 23.0479C20.9809 22.6291 20.9875 22.2062 20.9912 21.7793ZM17.0869 19.7969C12.7234 20.8496 8.82026 20.9784 5.84474 20.8457C4.01821 20.7642 2.53935 20.5837 1.5254 20.4609C1.51868 20.4601 1.51157 20.4588 1.50489 20.458C1.57903 20.4927 1.65663 20.5296 1.73732 20.5654C2.7184 21.0017 4.15215 21.5027 5.93165 21.875C8.47534 22.4071 11.7168 22.6741 15.3496 22.125C15.9503 21.4305 16.5913 20.7156 17.2715 19.9941C17.2096 19.9284 17.1482 19.8625 17.0869 19.7969ZM20.9942 21.1357C20.6648 21.2352 20.3334 21.3406 20 21.4512C19.8215 21.5102 19.6432 21.5663 19.4658 21.6211C19.6452 21.7961 19.8241 21.9692 20.0029 22.1397C20.3322 21.8258 20.6626 21.504 20.9932 21.1748C20.9932 21.1618 20.9941 21.1488 20.9942 21.1357ZM17.5654 20.3076C17.0216 20.8849 16.5017 21.4565 16.0088 22.0176C16.8472 21.8696 17.7046 21.6765 18.5781 21.4336C18.5779 21.4043 18.5774 21.375 18.5772 21.3457C18.2314 20.9994 17.8945 20.6526 17.5654 20.3076ZM20.8701 18.6963C20.6263 18.7694 20.3809 18.8453 20.1348 18.9268C19.7555 19.0526 19.3781 19.17 19.0039 19.2813C19.0029 19.5198 19 19.7594 19 20C19 20.3914 19.0027 20.7802 19.0049 21.166C19.0425 21.2034 19.0806 21.2401 19.1182 21.2773C19.1972 21.2536 19.2772 21.2316 19.3565 21.207L19.8652 21.044C20.2447 20.9181 20.6219 20.8002 20.9961 20.6885C20.9969 20.4599 21 20.2304 21 20C21 19.603 20.9949 19.2087 20.9922 18.8174C20.9515 18.7769 20.9108 18.7366 20.8701 18.6963ZM18.375 19.4619C18.2009 19.6402 18.029 19.8184 17.8594 19.9961C18.0932 20.2414 18.3318 20.4871 18.5742 20.7334C18.5734 20.49 18.5713 20.2455 18.5713 20C18.5713 19.8017 18.5735 19.6041 18.5742 19.4072C18.5079 19.4261 18.4412 19.4435 18.375 19.4619ZM21.4287 20C21.4287 20.1891 21.4253 20.3776 21.4248 20.5654C21.5048 20.5426 21.5844 20.5193 21.6641 20.4971C21.8273 20.3296 21.9883 20.1621 22.1475 19.9951C21.9107 19.747 21.6684 19.4992 21.4229 19.25C21.424 19.4989 21.4287 19.7489 21.4287 20ZM34.0645 18.1602C31.5241 17.6134 28.2891 17.3196 24.6641 17.8516C24.0619 18.5504 23.4175 19.2685 22.7344 19.9941C22.7903 20.0534 22.847 20.1117 22.9024 20.1709C27.2684 19.1037 31.1754 18.9406 34.1543 19.0537C35.7143 19.113 37.0204 19.2485 38.0029 19.3691C37.0329 18.9654 35.693 18.5107 34.0645 18.1602ZM17.5576 19.6768C17.56 19.6793 17.5621 19.6821 17.5645 19.6846C17.5688 19.6801 17.5729 19.6754 17.5772 19.6709C17.5706 19.6726 17.5642 19.6751 17.5576 19.6768ZM24.0088 17.957C23.1639 18.1027 22.2995 18.2942 21.419 18.5381C21.4192 18.5709 21.4187 18.6038 21.419 18.6367C21.7683 18.9865 22.1089 19.3364 22.4414 19.6846C22.9897 19.1017 23.5128 18.5237 24.0088 17.957ZM10.7119 10.8398C11.0669 11.4782 11.6341 12.3667 12.3897 13.4248C13.579 15.0903 15.2254 17.1618 17.2246 19.3203C17.532 19.244 17.8416 19.163 18.1533 19.0772C18.2941 18.9336 18.4356 18.7893 18.5791 18.6455C18.5847 17.9402 18.594 17.245 18.6074 16.5615C16.7125 14.854 14.9185 13.43 13.4414 12.3711C12.3851 11.6138 11.4981 11.0465 10.8594 10.6934C10.7461 10.6307 10.6412 10.5769 10.5469 10.5293C10.5948 10.6232 10.6494 10.7273 10.7119 10.8398ZM20.0029 17.8516C19.6713 18.1681 19.3391 18.4933 19.0059 18.8252C19.0059 18.8268 19.0059 18.8285 19.0059 18.8301C19.1641 18.7824 19.3242 18.7378 19.4834 18.6875L20 18.5195C20.1744 18.4618 20.3482 18.4061 20.5215 18.3525C20.3483 18.1836 20.1756 18.0163 20.0029 17.8516ZM19.0293 16.9404C19.0219 17.3623 19.0142 17.7886 19.0098 18.2188C19.2376 17.9948 19.4644 17.7734 19.6914 17.5566C19.4697 17.3478 19.2492 17.142 19.0293 16.9404ZM20.9707 16.9473C20.7529 17.147 20.5341 17.3507 20.3145 17.5576C20.5387 17.7718 20.7632 17.9898 20.9883 18.2109C20.9839 17.7857 20.978 17.3644 20.9707 16.9473ZM29.1484 10.6934C28.5098 11.0464 27.6228 11.6138 26.5664 12.3711C25.0873 13.4315 23.2895 14.8577 21.3916 16.5684C21.4015 17.0703 21.4104 17.5787 21.416 18.0928C22.449 17.8114 23.4601 17.6014 24.4434 17.4512C25.7043 15.9804 26.7763 14.6023 27.6172 13.4248C28.3729 12.3666 28.941 11.4783 29.2959 10.8398C29.3585 10.7272 29.413 10.6232 29.4609 10.5293C29.3666 10.5769 29.2619 10.6307 29.1484 10.6934ZM19.999 2.00001C19.8642 2.97585 19.7168 4.29725 19.5791 5.89161C19.3376 8.68915 19.1235 12.3167 19.0391 16.3731C19.3579 16.662 19.68 16.9582 20.0029 17.2627C20.3237 16.9603 20.6443 16.667 20.9609 16.3799C20.8766 12.3222 20.6625 8.69489 20.4209 5.89747C20.283 4.30016 20.1341 2.97697 19.999 2.00001Z" fill="#736344"/>
</svg>
