<svg width="40" height="40" viewBox="0 0 40 40" fill="none" xmlns="http://www.w3.org/2000/svg">
<path fill-rule="evenodd" clip-rule="evenodd" d="M0.00683817 19.9619C0.0670858 19.8665 0.510513 19.9089 1.27539 20H0.00488505C0.00357598 19.9946 -0.000103547 19.9902 2.23414e-06 19.9854L0.00683817 19.9619ZM20 5.15033e-06C20.3131 0.00708022 21.1732 6.87314 21.3818 16.001C25.8991 11.9742 29.7967 9.59444 30.1045 9.89454L30.1182 9.91504C30.2778 10.2858 28.3713 13.4712 25.0869 17.3604C33.6834 16.2587 40.0048 19.6767 40 19.9854C39.9934 20.2841 34.0484 18.6369 25.8711 20H23.6357C27.7057 19.0872 31.3432 18.947 34.1543 19.0537C35.7143 19.113 37.0204 19.2485 38.0029 19.3691C37.0329 18.9654 35.693 18.5107 34.0645 18.1602C31.5241 17.6134 28.289 17.3196 24.6641 17.8516C24.0619 18.5504 23.4175 19.2685 22.7344 19.9941C22.7363 19.9962 22.7383 19.998 22.7402 20H22.1426C22.1442 19.9983 22.1459 19.9968 22.1475 19.9951C21.9107 19.747 21.6683 19.4992 21.4229 19.25C21.4239 19.4989 21.4287 19.7489 21.4287 20H21C21 19.603 20.9949 19.2087 20.9922 18.8174C20.9515 18.7769 20.9108 18.7366 20.8701 18.6963C20.6263 18.7694 20.3809 18.8453 20.1348 18.9268C19.7555 19.0526 19.378 19.17 19.0039 19.2813C19.0029 19.5198 19 19.7594 19 20H18.5713C18.5713 19.8017 18.5735 19.6041 18.5742 19.4072C18.5078 19.4261 18.4412 19.4435 18.375 19.4619C18.2009 19.6402 18.029 19.8184 17.8594 19.9961C17.8606 19.9974 17.862 19.9987 17.8633 20H17.2656C17.2675 19.998 17.2696 19.9962 17.2715 19.9941C17.2096 19.9284 17.1482 19.8625 17.0869 19.7969C16.7872 19.8692 16.4895 19.9362 16.1943 20H13.8184C14.766 19.8547 15.7451 19.6709 16.749 19.4356C12.3578 14.6598 9.70142 10.3489 9.88965 9.91504L9.90235 9.89454C10.2083 9.59329 14.102 11.9715 18.6172 15.9951C18.8262 6.86712 19.6876 -0.00686845 20 5.15033e-06ZM17.5576 19.6768C17.56 19.6793 17.5621 19.6821 17.5645 19.6846C17.5687 19.6801 17.5729 19.6754 17.5772 19.6709C17.5706 19.6726 17.5642 19.6751 17.5576 19.6768ZM24.0088 17.957C23.1639 18.1027 22.2995 18.2942 21.4189 18.5381C21.4192 18.5709 21.4187 18.6038 21.4189 18.6367C21.7682 18.9864 22.1089 19.3364 22.4414 19.6846C22.9897 19.1017 23.5128 18.5237 24.0088 17.957ZM10.7119 10.8398C11.0669 11.4782 11.6341 12.3667 12.3897 13.4248C13.579 15.0903 15.2254 17.1618 17.2246 19.3203C17.532 19.244 17.8416 19.163 18.1533 19.0772C18.294 18.9336 18.4356 18.7893 18.5791 18.6455C18.5846 17.9402 18.594 17.245 18.6074 16.5615C16.7125 14.854 14.9185 13.43 13.4414 12.3711C12.3851 11.6138 11.4981 11.0465 10.8594 10.6934C10.7461 10.6307 10.6412 10.5769 10.5469 10.5293C10.5948 10.6232 10.6494 10.7273 10.7119 10.8398ZM19.0059 18.8252C19.0058 18.8268 19.0059 18.8285 19.0059 18.8301C19.1641 18.7824 19.3242 18.7378 19.4834 18.6875L20 18.5195C20.1744 18.4618 20.3482 18.4061 20.5215 18.3525C20.3483 18.1836 20.1756 18.0163 20.0029 17.8516C19.6713 18.1681 19.3391 18.4933 19.0059 18.8252ZM19.0098 18.2188C19.2376 17.9948 19.4644 17.7734 19.6914 17.5566C19.4697 17.3478 19.2492 17.142 19.0293 16.9404C19.0219 17.3623 19.0142 17.7886 19.0098 18.2188ZM20.3145 17.5576C20.5387 17.7718 20.7632 17.9898 20.9883 18.2109C20.9839 17.7857 20.978 17.3644 20.9707 16.9473C20.7528 17.147 20.5341 17.3507 20.3145 17.5576ZM29.1484 10.6934C28.5098 11.0464 27.6228 11.6138 26.5664 12.3711C25.0873 13.4315 23.2895 14.8577 21.3916 16.5684C21.4015 17.0703 21.4104 17.5787 21.416 18.0928C22.4489 17.8114 23.4601 17.6014 24.4434 17.4512C25.7043 15.9804 26.7763 14.6023 27.6172 13.4248C28.3729 12.3666 28.941 11.4783 29.2959 10.8398C29.3585 10.7272 29.413 10.6232 29.4609 10.5293C29.3666 10.5769 29.2619 10.6307 29.1484 10.6934ZM19.999 2.00001C19.8642 2.97585 19.7168 4.29725 19.5791 5.89161C19.3376 8.68915 19.1235 12.3167 19.0391 16.3731C19.3579 16.662 19.68 16.9582 20.0029 17.2627C20.3237 16.9603 20.6443 16.667 20.9609 16.3799C20.8766 12.3222 20.6625 8.69489 20.4209 5.89747C20.283 4.30016 20.1341 2.97697 19.999 2.00001Z" fill="#736344"/>
<path d="M25.8662 20C25.011 20.1426 24.1313 20.3181 23.2314 20.5322C27.7191 25.398 30.4206 29.7726 30.1006 30.0977C29.8202 30.3779 25.9079 28.0142 21.3838 23.9932C21.2053 33.1278 20.4564 40.0104 19.9951 40C19.518 39.9891 18.7801 33.1265 18.6045 24C14.0845 28.016 10.1784 30.3771 9.89746 30.0977C9.62313 29.8212 11.5529 26.5882 14.9189 22.6182C6.40568 23.7478 0.122403 20.5088 0 20H1.27051C3.40191 20.2537 8.02869 20.8867 13.8135 20H16.1895C12.1866 20.8652 8.61101 20.9693 5.83984 20.8457C4.01332 20.7642 2.53445 20.5837 1.52051 20.4609C1.51379 20.4601 1.50667 20.4588 1.5 20.458C1.57414 20.4927 1.65174 20.5295 1.73242 20.5654C2.7135 21.0017 4.14726 21.5027 5.92676 21.875C8.47044 22.4071 11.7119 22.674 15.3447 22.125C15.9437 21.4325 16.5826 20.7194 17.2607 20H17.8584C18.091 20.244 18.3282 20.4885 18.5693 20.7334C18.5685 20.49 18.5664 20.2455 18.5664 20H18.9951C18.9951 20.3914 18.9978 20.7802 19 21.166C19.0376 21.2034 19.0757 21.2401 19.1133 21.2773C19.1923 21.2536 19.2723 21.2316 19.3516 21.207L19.8604 21.0439C20.2398 20.9181 20.617 20.8002 20.9912 20.6885C20.992 20.4599 20.9951 20.2304 20.9951 20H21.4238C21.4238 20.1891 21.4204 20.3776 21.4199 20.5654C21.4999 20.5426 21.5795 20.5193 21.6592 20.4971C21.8207 20.3313 21.9801 20.1653 22.1377 20H22.7354C22.7894 20.0572 22.8439 20.1137 22.8975 20.1709C23.1433 20.1108 23.388 20.0545 23.6309 20H25.8662ZM19.0273 23.6211C19.0983 27.6801 19.2805 31.307 19.5039 34.1035C19.648 35.9072 19.8078 37.3593 19.9648 38.3564C19.9735 38.4113 19.9826 38.4648 19.9912 38.5166C19.9992 38.4681 20.0086 38.4184 20.0166 38.3672C20.1728 37.3709 20.3342 35.9176 20.4795 34.1123C20.7048 31.3119 20.8899 27.6783 20.9619 23.6152C20.6434 23.3272 20.3206 23.0331 19.998 22.7295C19.6732 23.0352 19.3481 23.3311 19.0273 23.6211ZM18.5752 21.8789C17.5488 22.1597 16.5439 22.3709 15.5664 22.5244C14.2978 23.9983 13.2195 25.3793 12.374 26.5586C11.6167 27.6149 11.0485 28.5019 10.6953 29.1406C10.6325 29.2542 10.5789 29.3596 10.5312 29.4541C10.6253 29.4061 10.7291 29.3508 10.8418 29.2881C11.4802 28.9332 12.3687 28.3659 13.4268 27.6104C14.905 26.5547 16.7008 25.1364 18.5957 23.4336C18.5873 22.9218 18.5799 22.4033 18.5752 21.8789ZM21.8857 20.8779C21.7307 21.0365 21.5745 21.1958 21.416 21.3545C21.4114 22.0554 21.404 22.7464 21.3926 23.4258C23.2908 25.1321 25.0898 26.5531 26.5703 27.6104C27.6287 28.3661 28.5178 28.9331 29.1562 29.2881C29.2691 29.3508 29.3727 29.4061 29.4668 29.4541C29.4191 29.3595 29.3656 29.2543 29.3027 29.1406C28.9496 28.5019 28.3814 27.6151 27.624 26.5586C26.4278 24.89 24.7681 22.8148 22.7568 20.6494C22.4685 20.7219 22.1779 20.7973 21.8857 20.8779ZM19.0195 23.0537C19.241 22.8512 19.4633 22.6446 19.6865 22.4346C19.4589 22.2174 19.2313 21.9959 19.0029 21.7715C19.0066 22.203 19.0133 22.6306 19.0195 23.0537ZM20.3096 22.4346C20.5306 22.6425 20.7505 22.8473 20.9697 23.0479C20.976 22.6291 20.9826 22.2062 20.9863 21.7793C20.7604 22.0013 20.5347 22.2198 20.3096 22.4346ZM19.9951 21.4512C19.8166 21.5102 19.6383 21.5663 19.4609 21.6211C19.6403 21.7961 19.8192 21.9692 19.998 22.1396C20.3273 21.8258 20.6577 21.504 20.9883 21.1748C20.9884 21.1618 20.9892 21.1488 20.9893 21.1357C20.6599 21.2352 20.3285 21.3406 19.9951 21.4512ZM17.5605 20.3076C17.0167 20.8849 16.4968 21.4565 16.0039 22.0176C16.8423 21.8696 17.6997 21.6765 18.5732 21.4336C18.573 21.4043 18.5725 21.375 18.5723 21.3457C18.2266 20.9994 17.8896 20.6525 17.5605 20.3076Z" fill="white"/>
</svg>
