<svg width="183" height="86" viewBox="0 0 183 86" fill="none" xmlns="http://www.w3.org/2000/svg">
<path d="M91.5 7.58288e-06C91.9383 0.00990256 93.1423 9.62044 93.4346 22.3975C99.7591 16.76 105.217 13.431 105.647 13.8525L105.665 13.8799C105.891 14.3954 103.222 18.8572 98.6221 24.3047C110.658 22.7624 119.508 27.5478 119.5 27.9795C119.49 28.4415 109.336 25.5788 96.0313 28.7441C102.315 35.557 106.096 41.6826 105.647 42.1367C105.255 42.5291 99.7772 39.223 93.4444 33.5947C93.1943 46.3812 92.1458 56.0146 91.5 56C90.8321 55.9849 89.7997 46.3799 89.5537 33.6055C83.226 39.2272 77.7545 42.5289 77.3623 42.1367C76.9801 41.7476 79.6821 37.2229 84.3926 31.667C72.3471 33.265 63.486 28.6157 63.5 27.9795L63.5098 27.9463C63.8677 27.3797 73.8859 30.2749 86.9502 27.2119C80.7999 20.5234 77.0801 14.4848 77.3457 13.8799L77.3633 13.8525C77.7907 13.4301 83.2435 16.7561 89.5645 22.3887C89.8572 9.61156 91.0627 -0.00985984 91.5 7.58288e-06ZM91.5049 31.8203C91.0492 32.2493 90.5955 32.6674 90.1455 33.0742C90.2449 38.755 90.4998 43.831 90.8125 47.7451C91.0143 50.2705 91.2382 52.3032 91.458 53.6992C91.4702 53.7763 91.4831 53.8511 91.4951 53.9238C91.5063 53.8557 91.519 53.7858 91.5303 53.7139C91.749 52.319 91.9753 50.2845 92.1787 47.7568C92.4941 43.8368 92.7517 38.751 92.8526 33.0635C92.4064 32.66 91.9567 32.2456 91.5049 31.8203ZM89.5117 30.6289C88.0719 31.0227 86.663 31.3211 85.292 31.5361C83.5176 33.598 82.0128 35.5329 80.8301 37.1826C79.7697 38.6617 78.9739 39.9027 78.4795 40.7969C78.3915 40.956 78.3168 41.1039 78.25 41.2363C78.3816 41.1691 78.5267 41.0917 78.6846 41.0039C79.5784 40.507 80.823 39.7124 82.3047 38.6543C84.3737 37.1768 86.8899 35.1956 89.542 32.8125C89.5301 32.0937 89.5184 31.3655 89.5117 30.6289ZM95.3643 28.9072C94.962 29.0083 94.557 29.1151 94.1494 29.2275C93.9318 29.4501 93.7117 29.6728 93.4893 29.8955C93.4827 30.8793 93.4721 31.8492 93.4561 32.8027C96.1123 35.1903 98.6332 37.1747 100.705 38.6543C102.187 39.7124 103.431 40.507 104.325 41.0039C104.483 41.0917 104.628 41.1691 104.76 41.2363C104.693 41.1039 104.618 40.956 104.53 40.7969C104.036 39.9028 103.241 38.6615 102.181 37.1826C100.506 34.846 98.181 31.9397 95.3643 28.9072ZM90.1113 30.4805C90.1165 31.0849 90.1251 31.6837 90.1338 32.2764C90.4442 31.9925 90.7554 31.7026 91.0684 31.4082C90.7498 31.1043 90.431 30.7946 90.1113 30.4805ZM92.8867 30.4912C92.5708 30.8015 92.2562 31.1079 91.9414 31.4082C92.2504 31.6989 92.5577 31.9852 92.8643 32.2656C92.873 31.6799 92.8815 31.0883 92.8867 30.4912ZM87.418 27.7178C81.3107 29.1907 75.8475 29.3694 71.6826 29.1836C69.1255 29.0695 67.0553 28.8174 65.6358 28.6455C65.6263 28.6444 65.6169 28.6427 65.6074 28.6416C65.7112 28.6902 65.8187 28.7418 65.9317 28.792C67.3052 29.4028 69.3122 30.1038 71.8037 30.625C75.364 31.3698 79.9008 31.7435 84.9854 30.9756C85.8262 30.0034 86.7255 29.0042 87.6778 27.9941C87.5908 27.9018 87.504 27.8099 87.418 27.7178ZM92.8916 29.5899C92.4306 29.7291 91.9667 29.8764 91.5 30.0313C91.2503 30.1139 91.0011 30.1928 90.7529 30.2695C91.004 30.5145 91.2546 30.7565 91.5049 30.9951C91.9657 30.5559 92.4279 30.1053 92.8906 29.6445C92.8907 29.6263 92.8915 29.6081 92.8916 29.5899ZM88.0908 28.4307C87.3293 29.239 86.6013 30.0396 85.9111 30.8252C87.0852 30.618 88.2856 30.3469 89.5088 30.0068C89.5085 29.9655 89.5081 29.9242 89.5078 29.8828C89.0239 29.3981 88.5514 28.9135 88.0908 28.4307ZM92.7178 26.1738C92.3763 26.2762 92.0331 26.384 91.6885 26.4981C91.1561 26.6747 90.6267 26.8391 90.1016 26.9951C90.1002 27.3286 90.0996 27.6636 90.0996 28C90.0996 28.5478 90.1034 29.0919 90.1065 29.6318C90.159 29.6842 90.2121 29.736 90.2647 29.7881C90.3755 29.7548 90.4874 29.7239 90.5986 29.6895L91.3115 29.4619C91.8428 29.2857 92.3705 29.1193 92.8945 28.9629C92.8956 28.6433 92.9004 28.3223 92.9004 28C92.9004 27.4453 92.8973 26.8944 92.8936 26.3477C92.8351 26.2894 92.7763 26.2317 92.7178 26.1738ZM89.2246 27.2471C88.9812 27.4964 88.7411 27.7457 88.5039 27.9941C88.8312 28.3375 89.1646 28.6817 89.5039 29.0264C89.5027 28.6858 89.5 28.3436 89.5 28C89.5 27.7227 89.501 27.4463 89.502 27.1709C89.4096 27.1972 89.3168 27.2214 89.2246 27.2471ZM93.5 28C93.5 28.2632 93.4959 28.5256 93.4951 28.7871C93.6082 28.7548 93.7213 28.7238 93.834 28.6924C94.0609 28.4595 94.2845 28.2264 94.5059 27.9941C94.1759 27.6484 93.8391 27.3023 93.4971 26.9551C93.4986 27.3018 93.5 27.6502 93.5 28ZM111.19 25.4248C107.635 24.6596 103.109 24.2477 98.0361 24.9912C97.1922 25.9707 96.2886 26.977 95.3311 27.9941C95.4085 28.0763 95.4868 28.1573 95.5635 28.2393C101.676 26.7452 107.146 26.5164 111.316 26.6748C113.5 26.7578 115.329 26.9483 116.704 27.1172C115.346 26.552 113.47 25.9155 111.19 25.4248ZM88.086 27.5527C88.0875 27.5544 88.0893 27.5559 88.0908 27.5576C88.0937 27.5546 88.0968 27.5518 88.0996 27.5488C88.095 27.55 88.0905 27.5516 88.086 27.5527ZM97.1133 25.1397C95.9314 25.3434 94.7221 25.6111 93.4903 25.9522C93.4907 26 93.4909 26.0478 93.4912 26.0957C93.9785 26.5837 94.454 27.0719 94.918 27.5576C95.6856 26.7415 96.4188 25.9331 97.1133 25.1397ZM78.4961 15.1748C78.993 16.0686 79.7876 17.3132 80.8457 18.7949C82.5113 21.1273 84.8173 24.0279 87.6172 27.0508C88.0449 26.9446 88.4755 26.8313 88.9092 26.7119C89.1066 26.5104 89.3065 26.3091 89.5078 26.1074C89.5156 25.1162 89.5289 24.1391 89.5479 23.1787C86.8968 20.7902 84.384 18.8019 82.3174 17.3203C80.8383 16.26 79.5973 15.4641 78.7031 14.9697C78.5443 14.8819 78.3968 14.8079 78.2647 14.7412C78.3318 14.8726 78.4086 15.0173 78.4961 15.1748ZM91.5049 24.9932C91.0393 25.4375 90.5723 25.8934 90.1045 26.3594C90.1045 26.3623 90.1045 26.3652 90.1045 26.3682C90.328 26.3009 90.5525 26.2331 90.7774 26.1621L91.5 25.9277C91.7446 25.8468 91.9884 25.7685 92.2315 25.6934C91.9891 25.4569 91.7465 25.2238 91.5049 24.9932ZM90.1367 23.7129C90.1263 24.3053 90.1186 24.9038 90.1123 25.5078C90.4316 25.1939 90.7503 24.8848 91.0684 24.5811C90.7562 24.287 90.4463 23.9966 90.1367 23.7129ZM92.8623 23.7227C92.5561 24.0034 92.2492 24.2902 91.9404 24.5811C92.2549 24.8814 92.5701 25.1869 92.8858 25.4971C92.8796 24.9 92.8726 24.3083 92.8623 23.7227ZM104.308 14.9697C103.413 15.4641 102.172 16.2599 100.692 17.3203C98.6231 18.8038 96.1061 20.7949 93.4512 23.1875C93.4651 23.893 93.4764 24.6075 93.4844 25.3301C94.9323 24.9358 96.3493 24.641 97.7276 24.4307C99.4914 22.3731 100.989 20.4425 102.165 18.7949C103.223 17.3133 104.017 16.0686 104.514 15.1748C104.601 15.0173 104.678 14.8726 104.745 14.7412C104.613 14.8079 104.466 14.8821 104.308 14.9697ZM91.499 2.79981C91.3103 4.16602 91.1029 6.01583 90.9102 8.24805C90.5721 12.1639 90.2716 17.2413 90.1533 22.919C90.6006 23.3244 91.0517 23.7408 91.5049 24.168C91.9546 23.744 92.4018 23.3302 92.8457 22.9277C92.7275 17.2486 92.428 12.1723 92.0899 8.25684C91.8967 6.02035 91.6882 4.16766 91.499 2.79981Z" fill="white"/>
<path d="M173.202 85.6876C173.042 85.6876 172.915 85.6681 172.821 85.629C172.728 85.59 172.681 85.5314 172.681 85.4533C172.681 85.2841 172.875 85.1604 173.262 85.0823C173.756 84.9782 174.11 84.835 174.324 84.6527C174.551 84.4575 174.665 84.1321 174.665 83.6765V74.8508C174.665 74.4082 174.571 74.0893 174.384 73.894C174.197 73.6988 173.856 73.5556 173.362 73.4645C173.162 73.4254 173.015 73.3733 172.921 73.3083C172.828 73.2432 172.781 73.1651 172.781 73.0739C172.781 72.9958 172.828 72.9373 172.921 72.8982C173.015 72.8461 173.142 72.8201 173.302 72.8201C173.743 72.8201 174.137 72.8266 174.484 72.8396C174.845 72.8527 175.192 72.8657 175.526 72.8787C175.873 72.8917 176.248 72.8982 176.648 72.8982C177.183 72.8982 177.744 72.8982 178.331 72.8982C178.932 72.8852 179.473 72.8722 179.954 72.8592C180.409 72.8592 180.783 72.8527 181.076 72.8396C181.384 72.8136 181.564 72.8006 181.617 72.8006C181.698 72.8006 181.778 72.8201 181.858 72.8592C181.951 72.8852 182.005 72.9438 182.018 73.0349C182.085 73.4384 182.152 73.8355 182.219 74.226C182.299 74.6035 182.339 74.9354 182.339 75.2218C182.339 75.352 182.305 75.4431 182.239 75.4951C182.185 75.5342 182.125 75.5537 182.058 75.5537C181.991 75.5537 181.938 75.5342 181.898 75.4951C181.858 75.4561 181.818 75.3975 181.778 75.3194C181.684 75.0591 181.597 74.8248 181.517 74.6165C181.437 74.3952 181.344 74.2325 181.237 74.1283C181.063 73.9461 180.863 73.8094 180.636 73.7183C180.409 73.6272 180.155 73.5816 179.874 73.5816H177.63C177.456 73.5816 177.269 73.6467 177.069 73.7769C176.882 73.894 176.789 74.0633 176.789 74.2845V78.2678C176.789 78.398 176.829 78.5021 176.909 78.5802C176.989 78.6583 177.082 78.6974 177.189 78.6974H179.093C179.48 78.6974 179.747 78.6128 179.894 78.4435C180.041 78.2743 180.161 78.014 180.255 77.6625C180.348 77.4022 180.475 77.272 180.636 77.272C180.702 77.272 180.763 77.3045 180.816 77.3696C180.869 77.4217 180.896 77.5063 180.896 77.6235C180.896 77.7016 180.889 77.8317 180.876 78.014C180.863 78.1962 180.849 78.385 180.836 78.5802C180.823 78.7755 180.816 78.9317 180.816 79.0488C180.816 79.192 180.816 79.3678 180.816 79.576C180.829 79.7713 180.843 79.9666 180.856 80.1618C180.869 80.3571 180.876 80.5003 180.876 80.5914C180.889 80.7085 180.876 80.8062 180.836 80.8843C180.809 80.9494 180.763 80.9819 180.696 80.9819C180.482 80.9819 180.322 80.7931 180.215 80.4156C180.135 80.0772 180.021 79.8234 179.874 79.6541C179.741 79.4849 179.54 79.4003 179.273 79.4003H177.41C177.196 79.4003 177.036 79.4328 176.929 79.4979C176.835 79.563 176.789 79.6997 176.789 79.908V83.6374C176.789 84.093 176.889 84.4119 177.089 84.5942C177.289 84.7634 177.597 84.848 178.011 84.848H179.594C179.968 84.848 180.295 84.822 180.576 84.7699C180.856 84.7178 181.096 84.6202 181.297 84.477C181.524 84.3208 181.724 84.119 181.898 83.8717C182.072 83.6244 182.252 83.3185 182.439 82.954C182.492 82.8759 182.546 82.8173 182.599 82.7783C182.653 82.7262 182.713 82.7067 182.78 82.7197C182.86 82.7197 182.913 82.7522 182.94 82.8173C182.98 82.8694 183 82.941 183 83.0321C183 83.1753 182.967 83.3901 182.9 83.6765C182.833 83.9628 182.746 84.2622 182.639 84.5746C182.546 84.8871 182.459 85.1539 182.379 85.3752C182.339 85.4663 182.292 85.5379 182.239 85.59C182.185 85.6551 182.118 85.6876 182.038 85.6876C181.557 85.6876 181.056 85.6811 180.535 85.6681C180.014 85.6551 179.48 85.6421 178.932 85.629C178.385 85.616 177.837 85.603 177.289 85.59C176.742 85.577 176.201 85.5705 175.666 85.5705C175.386 85.5705 175.119 85.577 174.865 85.59C174.611 85.616 174.351 85.6355 174.084 85.6486C173.83 85.6746 173.536 85.6876 173.202 85.6876Z" fill="white"/>
<path d="M164.166 85.8829C163.204 85.8829 162.276 85.7267 161.381 85.4143C160.499 85.1018 159.718 84.6593 159.036 84.0865C158.355 83.5137 157.814 82.8238 157.413 82.0168C157.026 81.2097 156.832 80.3115 156.832 79.3222C156.832 78.398 157.033 77.5323 157.433 76.7253C157.834 75.9052 158.389 75.1958 159.097 74.597C159.818 73.9852 160.653 73.51 161.601 73.1716C162.55 72.8201 163.578 72.6444 164.687 72.6444C165.181 72.6444 165.622 72.6704 166.009 72.7225C166.397 72.7615 166.771 72.8201 167.131 72.8982C167.492 72.9763 167.879 73.0805 168.294 73.2106C168.467 73.2627 168.594 73.3343 168.674 73.4254C168.768 73.5165 168.821 73.6532 168.835 73.8355C168.875 74.1739 168.908 74.5254 168.935 74.8898C168.975 75.2543 169.002 75.6579 169.015 76.1004C169.015 76.2176 168.961 76.3022 168.855 76.3543C168.761 76.4064 168.654 76.4194 168.534 76.3933C168.414 76.3543 168.334 76.2632 168.294 76.12C168.173 75.6904 168.033 75.3064 167.873 74.9679C167.713 74.6295 167.479 74.3496 167.172 74.1283C166.864 73.894 166.47 73.7118 165.989 73.5816C165.522 73.4514 164.994 73.3864 164.406 73.3864C163.658 73.3864 162.97 73.5361 162.343 73.8355C161.715 74.1348 161.18 74.5449 160.74 75.0656C160.299 75.5733 159.951 76.1525 159.698 76.8034C159.457 77.4542 159.337 78.1311 159.337 78.8341C159.337 79.6541 159.451 80.4417 159.678 81.1967C159.918 81.9517 160.259 82.6221 160.7 83.2078C161.154 83.7936 161.701 84.2622 162.343 84.6137C162.984 84.9521 163.705 85.1214 164.507 85.1214C165.468 85.1214 166.263 84.9131 166.891 84.4965C167.519 84.067 168.046 83.4552 168.474 82.6611C168.567 82.4789 168.708 82.3878 168.895 82.3878C169.082 82.3878 169.175 82.4919 169.175 82.7002C169.175 82.8303 169.148 83.0126 169.095 83.2469C169.055 83.4682 168.995 83.7155 168.915 83.9889C168.835 84.2492 168.754 84.49 168.674 84.7113C168.594 84.8806 168.521 84.9977 168.454 85.0628C168.387 85.1279 168.26 85.193 168.073 85.258C167.566 85.4663 166.964 85.6225 166.27 85.7267C165.589 85.8308 164.887 85.8829 164.166 85.8829Z" fill="white"/>
<path d="M141.207 85.6876C141.047 85.6876 140.914 85.6616 140.807 85.6095C140.7 85.5705 140.646 85.5054 140.646 85.4143C140.646 85.3101 140.7 85.2255 140.807 85.1604C140.914 85.0953 141.061 85.0302 141.248 84.9652C141.608 84.861 141.935 84.7048 142.229 84.4965C142.523 84.2883 142.764 83.9693 142.951 83.5398C143.311 82.7457 143.645 81.9907 143.953 81.2748C144.26 80.5458 144.554 79.8299 144.834 79.1269C145.115 78.424 145.402 77.7016 145.696 76.9596C145.99 76.2046 146.29 75.404 146.597 74.5579C146.718 74.2585 146.804 74.0112 146.858 73.8159C146.911 73.6076 146.945 73.4254 146.958 73.2692C147.132 73.2301 147.292 73.1911 147.439 73.152C147.586 73.1 147.746 73.0284 147.92 72.9373C148.08 72.8592 148.2 72.7485 148.281 72.6053C148.374 72.4491 148.448 72.3385 148.501 72.2734C148.528 72.2604 148.554 72.2539 148.581 72.2539C148.621 72.2408 148.655 72.2604 148.681 72.3124C148.721 72.3775 148.748 72.4491 148.761 72.5272C148.788 72.6053 148.815 72.6899 148.842 72.7811C149.149 73.7313 149.463 74.7011 149.783 75.6904C150.117 76.6667 150.445 77.6235 150.765 78.5607C151.086 79.4979 151.386 80.3701 151.667 81.1772C151.947 81.9712 152.188 82.6676 152.388 83.2664C152.535 83.696 152.709 84.0279 152.909 84.2622C153.109 84.4835 153.323 84.6527 153.55 84.7699C153.777 84.874 154.024 84.9521 154.292 85.0042C154.492 85.0433 154.639 85.1018 154.732 85.1799C154.839 85.258 154.893 85.3492 154.893 85.4533C154.893 85.5314 154.839 85.5835 154.732 85.6095C154.639 85.6486 154.519 85.6681 154.372 85.6681C154.158 85.6681 153.878 85.6551 153.53 85.629C153.183 85.616 152.822 85.603 152.448 85.59C152.074 85.577 151.734 85.5705 151.426 85.5705C151.173 85.5705 150.892 85.5705 150.585 85.5705C150.278 85.5705 149.984 85.577 149.703 85.59C149.436 85.603 149.202 85.6095 149.002 85.6095C148.842 85.6095 148.708 85.59 148.601 85.5509C148.508 85.4989 148.461 85.4338 148.461 85.3557C148.461 85.2515 148.521 85.1669 148.641 85.1018C148.761 85.0368 148.902 84.9912 149.062 84.9652C149.516 84.8871 149.843 84.7699 150.044 84.6137C150.258 84.4575 150.344 84.2492 150.304 83.9889C150.291 83.7676 150.244 83.4942 150.164 83.1688C150.084 82.8303 149.99 82.4789 149.884 82.1144C149.777 81.7369 149.676 81.3919 149.583 81.0795C149.556 80.9754 149.509 80.9103 149.443 80.8843C149.376 80.8582 149.262 80.8452 149.102 80.8452H145.395C145.328 80.8452 145.268 80.8712 145.215 80.9233C145.161 80.9624 145.108 81.047 145.055 81.1772C145.014 81.3334 144.948 81.5351 144.854 81.7825C144.774 82.0168 144.694 82.2706 144.614 82.544C144.534 82.8043 144.46 83.0516 144.393 83.2859C144.34 83.5072 144.307 83.6699 144.293 83.7741C144.253 84.0995 144.333 84.3599 144.534 84.5551C144.747 84.7374 145.061 84.8805 145.475 84.9847C145.876 85.0888 146.076 85.219 146.076 85.3752C146.076 85.4663 146.023 85.5314 145.916 85.5705C145.823 85.5965 145.696 85.6095 145.535 85.6095C145.282 85.6095 144.988 85.603 144.654 85.59C144.32 85.577 143.966 85.5705 143.592 85.5705C143.164 85.5705 142.75 85.59 142.35 85.629C141.949 85.6681 141.568 85.6876 141.207 85.6876ZM145.956 80.0447H148.882C149.069 80.0447 149.162 80.0121 149.162 79.947C149.162 79.908 149.155 79.8754 149.142 79.8494C149.142 79.8234 149.135 79.7843 149.122 79.7322L147.639 75.1046C147.573 74.8964 147.519 74.7922 147.479 74.7922C147.452 74.7922 147.406 74.8898 147.339 75.0851L145.596 79.7322C145.569 79.8103 145.555 79.8624 145.555 79.8884C145.555 79.9535 145.589 79.9991 145.656 80.0251C145.736 80.0381 145.836 80.0447 145.956 80.0447Z" fill="white"/>
<path d="M139.529 86C139.048 86 138.614 85.948 138.226 85.8438C137.852 85.7527 137.511 85.6095 137.204 85.4143C136.91 85.219 136.643 84.9782 136.403 84.6918C136.096 84.3013 135.795 83.9238 135.501 83.5593C135.221 83.1948 134.927 82.7848 134.619 82.3292C134.312 81.8606 133.952 81.2943 133.537 80.6304C133.364 80.305 133.117 80.0642 132.796 79.908C132.569 79.7908 132.335 79.7127 132.095 79.6737C131.868 79.6216 131.681 79.5891 131.534 79.576C131.44 79.576 131.367 79.6151 131.313 79.6932C131.273 79.7583 131.253 79.8494 131.253 79.9666V83.5007C131.253 83.9173 131.36 84.2622 131.574 84.5356C131.788 84.7959 132.155 84.9717 132.676 85.0628C132.863 85.1018 133.003 85.1474 133.097 85.1995C133.204 85.2515 133.257 85.3296 133.257 85.4338C133.257 85.5119 133.21 85.5705 133.117 85.6095C133.023 85.6486 132.896 85.6681 132.736 85.6681C132.402 85.6681 132.101 85.6551 131.834 85.629C131.581 85.616 131.333 85.603 131.093 85.59C130.866 85.564 130.625 85.5509 130.372 85.5509C130.051 85.5509 129.744 85.564 129.45 85.59C129.169 85.603 128.882 85.616 128.588 85.629C128.308 85.6551 127.994 85.6681 127.647 85.6681C127.5 85.6681 127.373 85.6486 127.266 85.6095C127.172 85.5835 127.126 85.5249 127.126 85.4338C127.126 85.2646 127.319 85.1409 127.707 85.0628C128.214 84.9717 128.575 84.8285 128.789 84.6332C129.016 84.438 129.129 84.1125 129.129 83.6569V75.1827C129.129 74.7402 129.103 74.4082 129.049 74.1869C128.996 73.9526 128.882 73.7899 128.709 73.6988C128.548 73.5946 128.288 73.5165 127.927 73.4645C127.713 73.4384 127.56 73.3929 127.466 73.3278C127.373 73.2497 127.326 73.1651 127.326 73.0739C127.326 72.9958 127.373 72.9373 127.466 72.8982C127.573 72.8461 127.7 72.8201 127.847 72.8201C128.234 72.8201 128.535 72.8266 128.749 72.8396C128.962 72.8527 129.163 72.8657 129.35 72.8787C129.55 72.8787 129.797 72.8787 130.091 72.8787C130.358 72.8787 130.599 72.8722 130.812 72.8592C131.026 72.8331 131.267 72.8136 131.534 72.8006C131.801 72.7746 132.142 72.7615 132.556 72.7615C134.052 72.7615 135.194 73.0284 135.982 73.5621C136.783 74.0828 137.184 74.8768 137.184 75.9442C137.184 76.53 137.057 77.0312 136.804 77.4477C136.563 77.8643 136.256 78.2092 135.882 78.4826C135.508 78.756 135.134 78.9707 134.76 79.1269C134.706 79.14 134.68 79.1725 134.68 79.2246C134.693 79.2636 134.713 79.3157 134.74 79.3808C135.154 79.9796 135.548 80.5523 135.922 81.0991C136.309 81.6328 136.717 82.1534 137.144 82.6611C137.585 83.1558 138.086 83.6569 138.647 84.1646C139.021 84.5031 139.408 84.7048 139.809 84.7699C140.223 84.835 140.664 84.8675 141.131 84.8675C141.332 84.8675 141.432 84.9587 141.432 85.1409C141.432 85.3622 141.325 85.5314 141.111 85.6486C140.911 85.7787 140.664 85.8699 140.37 85.9219C140.076 85.974 139.796 86 139.529 86ZM132.215 79.0684C132.789 79.0684 133.277 78.9447 133.678 78.6974C134.092 78.437 134.406 78.0986 134.619 77.682C134.847 77.2525 134.96 76.7904 134.96 76.2957C134.96 75.736 134.887 75.2413 134.74 74.8117C134.593 74.3822 134.326 74.0502 133.938 73.8159C133.551 73.5686 132.996 73.4449 132.275 73.4449C131.901 73.4449 131.647 73.5751 131.514 73.8355C131.38 74.0828 131.307 74.5579 131.293 75.2608C131.28 75.5733 131.267 75.9898 131.253 76.5105C131.253 77.0312 131.253 77.6495 131.253 78.3654C131.253 78.6779 131.34 78.8731 131.514 78.9512C131.687 79.0293 131.921 79.0684 132.215 79.0684Z" fill="white"/>
<path d="M118.117 85.8633C117.182 85.8633 116.294 85.7071 115.452 85.3947C114.624 85.0823 113.883 84.6397 113.228 84.067C112.587 83.4942 112.079 82.8173 111.705 82.0363C111.331 81.2553 111.144 80.4091 111.144 79.4979C111.144 78.5607 111.331 77.6755 111.705 76.8424C112.079 76.0093 112.607 75.2804 113.288 74.6555C113.97 74.0307 114.758 73.5426 115.653 73.1911C116.561 72.8266 117.543 72.6444 118.598 72.6444C118.839 72.6444 119.146 72.6639 119.52 72.703C119.907 72.742 120.308 72.7941 120.722 72.8592C121.136 72.9242 121.51 72.9958 121.844 73.0739C122.191 73.152 122.445 73.2302 122.606 73.3083C122.686 73.3343 122.746 73.3733 122.786 73.4254C122.826 73.4645 122.853 73.5295 122.866 73.6207C122.919 74.0242 122.966 74.4212 123.006 74.8117C123.046 75.1892 123.066 75.5082 123.066 75.7685C123.066 75.8726 123.033 75.9638 122.966 76.0419C122.913 76.12 122.846 76.159 122.766 76.159C122.619 76.159 122.512 76.107 122.445 76.0028C122.378 75.8987 122.318 75.788 122.265 75.6709C122.171 75.4496 122.071 75.2478 121.964 75.0656C121.857 74.8703 121.711 74.6751 121.524 74.4798C121.417 74.3496 121.236 74.213 120.983 74.0698C120.742 73.9136 120.421 73.7769 120.021 73.6597C119.633 73.5426 119.152 73.484 118.578 73.484C117.817 73.484 117.129 73.6402 116.514 73.9526C115.9 74.252 115.379 74.6686 114.951 75.2023C114.524 75.736 114.197 76.3413 113.97 77.0182C113.742 77.6951 113.629 78.4045 113.629 79.1465C113.629 80.0577 113.749 80.8778 113.99 81.6067C114.243 82.3357 114.584 82.954 115.011 83.4617C115.452 83.9693 115.967 84.3599 116.554 84.6332C117.142 84.8936 117.763 85.0237 118.418 85.0237C119.046 85.0237 119.513 84.9456 119.82 84.7894C120.141 84.6332 120.361 84.5031 120.482 84.3989C120.629 84.2687 120.755 84.08 120.862 83.8327C120.983 83.5723 121.043 83.2859 121.043 82.9735C121.043 82.8564 121.043 82.7197 121.043 82.5635C121.056 82.4073 121.063 82.2511 121.063 82.0949C121.076 81.9256 121.083 81.7825 121.083 81.6653C121.083 81.5221 121.063 81.3984 121.023 81.2943C120.996 81.1902 120.942 81.1056 120.862 81.0405C120.742 80.9233 120.568 80.8322 120.341 80.7671C120.114 80.689 119.887 80.6304 119.66 80.5914C119.446 80.5523 119.273 80.5263 119.139 80.5133C119.059 80.5133 118.965 80.4807 118.859 80.4156C118.752 80.3375 118.698 80.2464 118.698 80.1423C118.698 80.0512 118.752 79.9796 118.859 79.9275C118.965 79.8624 119.052 79.8299 119.119 79.8299C119.44 79.8299 119.74 79.8364 120.021 79.8494C120.315 79.8624 120.609 79.8754 120.902 79.8885C121.196 79.9015 121.51 79.908 121.844 79.908C122.191 79.908 122.519 79.895 122.826 79.8689C123.147 79.8429 123.494 79.8299 123.868 79.8299C123.935 79.8299 124.015 79.8559 124.108 79.908C124.202 79.947 124.249 80.0251 124.249 80.1423C124.249 80.2464 124.195 80.331 124.088 80.3961C123.995 80.4612 123.915 80.5003 123.848 80.5133C123.527 80.6044 123.3 80.7216 123.167 80.8647C123.046 81.0079 122.966 81.2097 122.926 81.47C122.886 81.7564 122.859 82.0103 122.846 82.2315C122.833 82.4528 122.826 82.6872 122.826 82.9345V83.5007C122.826 83.5658 122.839 83.6244 122.866 83.6765C122.906 83.7155 122.946 83.7676 122.986 83.8327C123.026 83.8978 123.073 83.9628 123.126 84.0279C123.193 84.08 123.227 84.1386 123.227 84.2037C123.227 84.2557 123.207 84.3273 123.167 84.4184C123.14 84.4965 123.053 84.5486 122.906 84.5746C122.813 84.5877 122.626 84.6658 122.345 84.809C122.078 84.9391 121.737 85.0888 121.323 85.258C120.922 85.4143 120.448 85.5509 119.901 85.6681C119.366 85.7983 118.772 85.8633 118.117 85.8633Z" fill="white"/>
<path d="M101.782 85.8634C100.58 85.8634 99.5717 85.6551 98.7568 85.2385C97.942 84.822 97.3275 84.2362 96.9134 83.4812C96.4993 82.7132 96.2923 81.8215 96.2923 80.8062V74.968C96.2923 74.5384 96.1988 74.1999 96.0118 73.9526C95.8381 73.7053 95.6177 73.5556 95.3505 73.5035C94.9231 73.3864 94.7094 73.2432 94.7094 73.0739C94.7094 72.9828 94.7628 72.9177 94.8697 72.8787C94.9765 72.8396 95.1101 72.8201 95.2704 72.8201C95.6177 72.8201 95.9717 72.8331 96.3324 72.8592C96.693 72.8852 97.0604 72.8982 97.4344 72.8982C97.7683 72.8982 98.1156 72.8917 98.4763 72.8787C98.837 72.8527 99.1576 72.8396 99.4381 72.8396C99.6117 72.8396 99.7453 72.8592 99.8388 72.8982C99.9457 72.9373 99.9991 73.0024 99.9991 73.0935C99.9991 73.1976 99.9257 73.2822 99.7787 73.3473C99.6451 73.3994 99.4648 73.4645 99.2377 73.5426C99.0641 73.6077 98.8837 73.7639 98.6967 74.0112C98.5231 74.2455 98.4362 74.5709 98.4362 74.9875V80.3375C98.4362 81.3269 98.6032 82.1404 98.9372 82.7783C99.2711 83.4161 99.732 83.8847 100.32 84.1841C100.907 84.4835 101.569 84.6332 102.303 84.6332C103.626 84.6332 104.594 84.2102 105.209 83.364C105.837 82.5049 106.151 81.3269 106.151 79.8299C106.151 79.5305 106.151 79.153 106.151 78.6974C106.151 78.2418 106.144 77.7601 106.13 77.2525C106.13 76.7448 106.124 76.2632 106.11 75.8076C106.097 75.378 106.057 75.0135 105.99 74.7141C105.937 74.4017 105.843 74.1414 105.71 73.9331C105.576 73.7248 105.402 73.5881 105.189 73.523C105.055 73.471 104.902 73.4124 104.728 73.3473C104.568 73.2822 104.487 73.1976 104.487 73.0935C104.487 73.0154 104.541 72.9568 104.648 72.9177C104.755 72.8787 104.895 72.8592 105.069 72.8592C105.443 72.8592 105.736 72.8657 105.95 72.8787C106.164 72.8917 106.424 72.8982 106.732 72.8982C106.959 72.8982 107.159 72.8917 107.333 72.8787C107.52 72.8657 107.7 72.8527 107.874 72.8396C108.047 72.8266 108.228 72.8201 108.415 72.8201C108.575 72.8201 108.709 72.8396 108.815 72.8787C108.922 72.9177 108.976 72.9828 108.976 73.0739C108.976 73.2432 108.769 73.3733 108.355 73.4645C107.967 73.5556 107.693 73.7313 107.533 73.9917C107.386 74.252 107.299 74.597 107.273 75.0265C107.206 76.0939 107.166 77.0767 107.152 77.9749C107.139 78.8601 107.119 79.7453 107.092 80.6304C107.079 81.6458 106.832 82.5505 106.351 83.3445C105.883 84.1386 105.256 84.7569 104.467 85.1995C103.679 85.6421 102.784 85.8634 101.782 85.8634Z" fill="white"/>
<path d="M82.207 85.6876C82.06 85.6876 81.9398 85.6616 81.8463 85.6095C81.7528 85.5574 81.7061 85.4989 81.7061 85.4338C81.7061 85.3296 81.7595 85.2515 81.8664 85.1995C81.9732 85.1344 82.06 85.0953 82.1268 85.0823C82.6344 84.9652 83.0085 84.8155 83.2489 84.6332C83.5027 84.451 83.6296 84.1451 83.6296 83.7155V74.7141C83.6296 74.4017 83.5962 74.1739 83.5294 74.0307C83.4626 73.8745 83.3357 73.7574 83.1487 73.6793C82.9751 73.6011 82.7213 73.5296 82.3873 73.4645C81.9999 73.3864 81.8062 73.2562 81.8062 73.0739C81.8062 72.9828 81.853 72.9177 81.9465 72.8787C82.0534 72.8396 82.1803 72.8201 82.3272 72.8201C82.6612 72.8201 82.9617 72.8266 83.2289 72.8396C83.496 72.8527 83.7498 72.8657 83.9903 72.8787C84.2307 72.8917 84.4979 72.8982 84.7918 72.8982C85.099 72.8982 85.3929 72.8982 85.6734 72.8982C85.9539 72.8852 86.2411 72.8722 86.535 72.8592C86.8289 72.8461 87.1428 72.8396 87.4767 72.8396C87.637 72.8396 87.7572 72.8592 87.8374 72.8982C87.9309 72.9243 87.9777 72.9828 87.9777 73.0739C87.9777 73.1781 87.9309 73.2627 87.8374 73.3278C87.7439 73.3799 87.5969 73.4254 87.3966 73.4645C86.889 73.5816 86.4882 73.7118 86.1944 73.855C85.9005 73.9852 85.7535 74.239 85.7535 74.6165V83.6569C85.7535 84.0605 85.8404 84.3534 86.014 84.5356C86.201 84.7048 86.5751 84.7894 87.1361 84.7894H89.4604C89.8077 84.7894 90.1083 84.7374 90.3621 84.6332C90.6292 84.5291 90.8363 84.4119 90.9832 84.2818C91.237 84.0605 91.4307 83.8522 91.5643 83.6569C91.7112 83.4487 91.8648 83.1753 92.0251 82.8369C92.0919 82.6937 92.1654 82.557 92.2455 82.4268C92.3257 82.2966 92.4125 82.2316 92.506 82.2316C92.5995 82.2316 92.6663 82.2771 92.7064 82.3682C92.7465 82.4463 92.7665 82.5244 92.7665 82.6025C92.7665 82.6286 92.7598 82.6611 92.7465 82.7002C92.7331 82.7392 92.7264 82.7783 92.7264 82.8173C92.6329 83.1688 92.5461 83.4812 92.4659 83.7546C92.3858 84.0279 92.319 84.2883 92.2656 84.5356C92.2255 84.7829 92.1921 85.0498 92.1654 85.3362C92.152 85.4273 92.1253 85.5119 92.0852 85.59C92.0452 85.6551 91.9717 85.6876 91.8648 85.6876C91.3439 85.6876 90.7895 85.6811 90.2018 85.6681C89.614 85.6551 89.0196 85.6421 88.4185 85.629C87.8173 85.629 87.2229 85.6225 86.6352 85.6095C86.0608 85.5965 85.5064 85.59 84.9721 85.59C84.6515 85.59 84.2908 85.5965 83.8901 85.6095C83.5027 85.6225 83.142 85.6355 82.8081 85.6486C82.4875 85.6746 82.2871 85.6876 82.207 85.6876Z" fill="white"/>
<path d="M62.6137 85.6876C62.4668 85.6876 62.3466 85.6616 62.2531 85.6095C62.1595 85.5574 62.1128 85.4989 62.1128 85.4338C62.1128 85.3296 62.1662 85.2515 62.2731 85.1995C62.38 85.1344 62.4668 85.0953 62.5336 85.0823C63.0412 84.9652 63.4152 84.8155 63.6556 84.6332C63.9094 84.451 64.0364 84.1451 64.0364 83.7155V74.7141C64.0364 74.4017 64.003 74.1739 63.9362 74.0307C63.8694 73.8745 63.7425 73.7574 63.5555 73.6793C63.3818 73.6011 63.128 73.5296 62.7941 73.4645C62.4067 73.3864 62.213 73.2562 62.213 73.0739C62.213 72.9828 62.2597 72.9177 62.3532 72.8787C62.4601 72.8396 62.587 72.8201 62.7339 72.8201C63.0679 72.8201 63.3684 72.8266 63.6356 72.8396C63.9028 72.8527 64.1566 72.8657 64.397 72.8787C64.6375 72.8917 64.9046 72.8982 65.1985 72.8982C65.5057 72.8982 65.7996 72.8982 66.0801 72.8982C66.3606 72.8852 66.6478 72.8722 66.9417 72.8592C67.2356 72.8461 67.5495 72.8396 67.8835 72.8396C68.0438 72.8396 68.164 72.8592 68.2441 72.8982C68.3376 72.9243 68.3844 72.9828 68.3844 73.0739C68.3844 73.1781 68.3376 73.2627 68.2441 73.3278C68.1506 73.3799 68.0037 73.4254 67.8033 73.4645C67.2957 73.5816 66.895 73.7118 66.6011 73.855C66.3072 73.9852 66.1603 74.239 66.1603 74.6165V83.6569C66.1603 84.0605 66.2471 84.3534 66.4208 84.5356C66.6078 84.7048 66.9818 84.7894 67.5428 84.7894H69.8671C70.2144 84.7894 70.515 84.7374 70.7688 84.6332C71.036 84.5291 71.243 84.4119 71.3899 84.2818C71.6437 84.0605 71.8374 83.8522 71.971 83.6569C72.118 83.4487 72.2716 83.1753 72.4319 82.8369C72.4987 82.6937 72.5721 82.557 72.6523 82.4268C72.7324 82.2966 72.8193 82.2316 72.9128 82.2316C73.0063 82.2316 73.0731 82.2771 73.1131 82.3682C73.1532 82.4463 73.1732 82.5244 73.1732 82.6025C73.1732 82.6286 73.1666 82.6611 73.1532 82.7002C73.1398 82.7392 73.1332 82.7783 73.1332 82.8173C73.0397 83.1688 72.9528 83.4812 72.8727 83.7546C72.7925 84.0279 72.7258 84.2883 72.6723 84.5356C72.6322 84.7829 72.5988 85.0498 72.5721 85.3362C72.5588 85.4273 72.5321 85.5119 72.492 85.59C72.4519 85.6551 72.3784 85.6876 72.2716 85.6876C71.7506 85.6876 71.1963 85.6811 70.6085 85.6681C70.0207 85.6551 69.4263 85.6421 68.8252 85.629C68.2241 85.629 67.6297 85.6225 67.0419 85.6095C66.4675 85.5965 65.9132 85.59 65.3788 85.59C65.0582 85.59 64.6976 85.5965 64.2968 85.6095C63.9094 85.6225 63.5488 85.6355 63.2148 85.6486C62.8942 85.6746 62.6939 85.6876 62.6137 85.6876Z" fill="white"/>
<path d="M49.5624 85.6876C49.4021 85.6876 49.2752 85.6681 49.1817 85.629C49.0882 85.59 49.0414 85.5314 49.0414 85.4533C49.0414 85.2841 49.2351 85.1604 49.6225 85.0823C50.1168 84.9782 50.4708 84.835 50.6845 84.6527C50.9116 84.4575 51.0251 84.1321 51.0251 83.6765V74.8508C51.0251 74.4082 50.9316 74.0893 50.7446 73.894C50.5576 73.6988 50.2169 73.5556 49.7227 73.4645C49.5223 73.4254 49.3754 73.3733 49.2819 73.3083C49.1884 73.2432 49.1416 73.1651 49.1416 73.0739C49.1416 72.9958 49.1884 72.9373 49.2819 72.8982C49.3754 72.8461 49.5023 72.8201 49.6626 72.8201C50.1034 72.8201 50.4975 72.8266 50.8448 72.8396C51.2054 72.8527 51.5528 72.8657 51.8867 72.8787C52.234 72.8917 52.608 72.8982 53.0088 72.8982C53.5431 72.8982 54.1041 72.8982 54.6919 72.8982C55.293 72.8852 55.834 72.8722 56.3149 72.8592C56.7691 72.8592 57.1431 72.8527 57.437 72.8396C57.7442 72.8136 57.9245 72.8006 57.978 72.8006C58.0581 72.8006 58.1383 72.8201 58.2184 72.8592C58.3119 72.8852 58.3653 72.9438 58.3787 73.0349C58.4455 73.4384 58.5123 73.8355 58.5791 74.226C58.6592 74.6035 58.6993 74.9354 58.6993 75.2218C58.6993 75.352 58.6659 75.4431 58.5991 75.4951C58.5457 75.5342 58.4856 75.5537 58.4188 75.5537C58.352 75.5537 58.2986 75.5342 58.2585 75.4951C58.2184 75.4561 58.1783 75.3975 58.1383 75.3194C58.0448 75.0591 57.9579 74.8248 57.8778 74.6165C57.7976 74.3952 57.7041 74.2325 57.5973 74.1283C57.4236 73.9461 57.2232 73.8094 56.9962 73.7183C56.7691 73.6272 56.5153 73.5816 56.2347 73.5816H53.9906C53.8169 73.5816 53.6299 73.6467 53.4296 73.7769C53.2425 73.894 53.149 74.0633 53.149 74.2845V78.2678C53.149 78.398 53.1891 78.5021 53.2693 78.5802C53.3494 78.6583 53.4429 78.6974 53.5498 78.6974H55.4533C55.8407 78.6974 56.1078 78.6128 56.2548 78.4435C56.4017 78.2743 56.5219 78.014 56.6154 77.6625C56.709 77.4022 56.8359 77.272 56.9962 77.272C57.0629 77.272 57.1231 77.3045 57.1765 77.3696C57.2299 77.4217 57.2566 77.5063 57.2566 77.6235C57.2566 77.7016 57.25 77.8317 57.2366 78.014C57.2232 78.1962 57.2099 78.385 57.1965 78.5802C57.1832 78.7755 57.1765 78.9317 57.1765 79.0488C57.1765 79.192 57.1765 79.3678 57.1765 79.576C57.1898 79.7713 57.2032 79.9666 57.2166 80.1618C57.2299 80.3571 57.2366 80.5003 57.2366 80.5914C57.25 80.7085 57.2366 80.8062 57.1965 80.8843C57.1698 80.9494 57.123 80.9819 57.0563 80.9819C56.8425 80.9819 56.6822 80.7931 56.5754 80.4156C56.4952 80.0772 56.3817 79.8234 56.2347 79.6541C56.1012 79.4849 55.9008 79.4003 55.6336 79.4003H53.7702C53.5565 79.4003 53.3962 79.4328 53.2893 79.4979C53.1958 79.563 53.149 79.6997 53.149 79.908V83.6374C53.149 84.093 53.2492 84.4119 53.4496 84.5942C53.65 84.7634 53.9572 84.848 54.3713 84.848H55.9542C56.3282 84.848 56.6555 84.822 56.936 84.7699C57.2166 84.7178 57.457 84.6202 57.6574 84.477C57.8845 84.3208 58.0848 84.119 58.2585 83.8717C58.4321 83.6244 58.6125 83.3185 58.7995 82.954C58.8529 82.8759 58.9063 82.8173 58.9598 82.7783C59.0132 82.7262 59.0733 82.7067 59.1401 82.7197C59.2203 82.7197 59.2737 82.7522 59.3004 82.8173C59.3405 82.8694 59.3605 82.941 59.3605 83.0321C59.3605 83.1753 59.3271 83.3901 59.2603 83.6765C59.1935 83.9628 59.1067 84.2622 58.9999 84.5746C58.9063 84.8871 58.8195 85.1539 58.7394 85.3752C58.6993 85.4663 58.6525 85.5379 58.5991 85.59C58.5457 85.6551 58.4789 85.6876 58.3987 85.6876C57.9179 85.6876 57.4169 85.6811 56.896 85.6681C56.375 85.6551 55.8407 85.6421 55.293 85.629C54.7453 85.616 54.1976 85.603 53.65 85.59C53.1023 85.577 52.5613 85.5705 52.027 85.5705C51.7464 85.5705 51.4793 85.577 51.2255 85.59C50.9717 85.616 50.7112 85.6355 50.444 85.6486C50.1902 85.6746 49.8964 85.6876 49.5624 85.6876Z" fill="white"/>
<path d="M37.2455 85.6681C37.0985 85.6681 36.9716 85.6486 36.8648 85.6095C36.7579 85.5835 36.7045 85.5249 36.7045 85.4338C36.7045 85.3427 36.7579 85.2711 36.8648 85.219C36.9716 85.1539 37.1186 85.1018 37.3056 85.0628C37.8132 84.9717 38.1939 84.822 38.4477 84.6137C38.7015 84.4054 38.8284 84.0735 38.8284 83.6179V75.8857C38.8284 75.3129 38.815 74.8833 38.7883 74.597C38.7616 74.2976 38.7215 74.0958 38.6681 73.9917C38.6147 73.8745 38.5412 73.8029 38.4477 73.7769C38.2874 73.7378 38.1071 73.7183 37.9067 73.7183C37.7063 73.7053 37.4725 73.6988 37.2054 73.6988H36.4239C36.0766 73.6988 35.7293 73.7769 35.382 73.9331C35.0481 74.0763 34.7943 74.2845 34.6206 74.5579C34.5672 74.636 34.487 74.7467 34.3802 74.8898C34.2867 75.02 34.1798 75.1372 34.0596 75.2413C33.9394 75.3324 33.8191 75.378 33.6989 75.378C33.6321 75.378 33.5787 75.352 33.5386 75.2999C33.5119 75.2478 33.4985 75.1827 33.4985 75.1046C33.4985 74.9614 33.5386 74.8183 33.6188 74.6751C33.8325 74.2585 33.9861 73.894 34.0796 73.5816C34.1731 73.2692 34.2466 72.8982 34.3 72.4686C34.3267 72.2604 34.3802 72.1302 34.4603 72.0781C34.5405 72.0261 34.6206 72 34.7008 72C34.7675 72 34.8544 72.0846 34.9612 72.2539C35.0815 72.4101 35.175 72.5402 35.2418 72.6444C35.3486 72.7615 35.549 72.8527 35.8429 72.9177C36.1367 72.9828 36.4106 73.0154 36.6644 73.0154L43.8978 72.9958C44.3119 72.9958 44.6525 72.9698 44.9196 72.9177C45.2002 72.8657 45.4273 72.8006 45.6009 72.7225C45.7879 72.6314 45.9349 72.5337 46.0417 72.4296C46.1486 72.3124 46.2888 72.2539 46.4625 72.2539C46.5159 72.2539 46.556 72.2994 46.5827 72.3905C46.6094 72.4686 46.6228 72.5598 46.6228 72.6639C46.6228 72.716 46.6161 72.7941 46.6028 72.8982C46.5894 73.0024 46.576 73.087 46.5627 73.1521C46.5093 73.3994 46.4558 73.5946 46.4024 73.7378C46.3623 73.881 46.3289 74.0177 46.3022 74.1479C46.2888 74.265 46.2822 74.4212 46.2822 74.6165V74.8898C46.2822 75.0461 46.2555 75.1958 46.202 75.3389C46.1486 75.4821 46.0684 75.5537 45.9616 75.5537C45.8547 75.5537 45.7679 75.4886 45.7011 75.3585C45.6343 75.2153 45.5675 75.0135 45.5007 74.7532C45.4206 74.4147 45.2402 74.1544 44.9597 73.9721C44.6926 73.7899 44.2451 73.6988 43.6172 73.6988H41.9341C41.667 73.6988 41.4599 73.7443 41.313 73.8355C41.166 73.9136 41.0659 74.1088 41.0124 74.4212C40.9724 74.7206 40.9523 75.2088 40.9523 75.8857V83.6179C40.9523 84.0605 41.0792 84.3859 41.333 84.5942C41.6002 84.8024 41.9876 84.9587 42.4952 85.0628C42.6822 85.1018 42.8224 85.1474 42.9159 85.1995C43.0228 85.2515 43.0762 85.3296 43.0762 85.4338C43.0762 85.5119 43.0295 85.5705 42.936 85.6095C42.8425 85.6486 42.7156 85.6681 42.5553 85.6681C42.2213 85.6681 41.9141 85.6551 41.6336 85.629C41.3531 85.616 41.0792 85.603 40.8121 85.59C40.5449 85.577 40.2644 85.5705 39.9705 85.5705C39.6499 85.5705 39.3494 85.577 39.0688 85.59C38.7883 85.603 38.5011 85.616 38.2072 85.629C37.9134 85.6551 37.5928 85.6681 37.2455 85.6681Z" fill="white"/>
<path d="M24.0774 85.8634C23.1824 85.8634 22.3275 85.7137 21.5126 85.4143C20.7112 85.1019 19.9965 84.6658 19.3687 84.106C18.7408 83.5333 18.2399 82.8564 17.8659 82.0754C17.5052 81.2813 17.3249 80.4026 17.3249 79.4394C17.3249 78.5542 17.4718 77.7081 17.7657 76.901C18.0729 76.0809 18.5138 75.352 19.0881 74.7141C19.6759 74.0763 20.4039 73.5686 21.2722 73.1911C22.1405 72.8136 23.1356 72.6249 24.2577 72.6249C25.1661 72.6249 26.021 72.7811 26.8224 73.0935C27.6373 73.3929 28.3586 73.829 28.9864 74.4017C29.6143 74.9615 30.1085 75.6383 30.4692 76.4324C30.8432 77.2134 31.0302 78.0856 31.0302 79.0489C31.0302 79.921 30.8766 80.7671 30.5694 81.5872C30.2755 82.4073 29.8347 83.1363 29.2469 83.7741C28.6725 84.4119 27.9512 84.9196 27.0829 85.2971C26.2147 85.6746 25.2128 85.8634 24.0774 85.8634ZM24.398 85.0433C25.333 85.0433 26.1078 84.835 26.7223 84.4184C27.3501 83.9889 27.8176 83.3966 28.1249 82.6416C28.4454 81.8866 28.6057 81.0144 28.6057 80.0251C28.6057 79.153 28.5056 78.3264 28.3052 77.5454C28.1182 76.7643 27.831 76.0679 27.4436 75.4561C27.0562 74.8313 26.5686 74.3496 25.9809 74.0112C25.3931 73.6597 24.7052 73.484 23.9171 73.484C23.0087 73.484 22.2406 73.6923 21.6128 74.1088C20.9983 74.5254 20.5308 75.1046 20.2102 75.8466C19.903 76.5886 19.7494 77.4542 19.7494 78.4436C19.7494 79.3287 19.8429 80.1618 20.0299 80.9429C20.2169 81.7239 20.5041 82.4268 20.8915 83.0516C21.2789 83.6635 21.7598 84.1516 22.3342 84.5161C22.9219 84.8675 23.6098 85.0433 24.398 85.0433Z" fill="white"/>
<path d="M0.500926 85.6681C0.353988 85.6681 0.233766 85.6421 0.140259 85.59C0.0467531 85.5509 0 85.4924 0 85.4143C0 85.2581 0.187012 85.1409 0.561037 85.0628C1.05528 84.9717 1.38256 84.8285 1.54285 84.6332C1.70315 84.438 1.7833 84.119 1.7833 83.6765V74.8313C1.7833 74.3887 1.72319 74.0763 1.60296 73.894C1.48274 73.7118 1.17551 73.5686 0.681259 73.4645C0.293877 73.3864 0.100185 73.2627 0.100185 73.0935C0.100185 73.0154 0.140259 72.9503 0.220407 72.8982C0.313914 72.8461 0.440815 72.8201 0.601111 72.8201C0.94842 72.8201 1.2423 72.8266 1.48274 72.8396C1.72319 72.8527 1.95027 72.8657 2.164 72.8787C2.39109 72.8917 2.63821 72.8982 2.90537 72.8982C3.18589 72.8982 3.43969 72.8982 3.66678 72.8982C3.90722 72.8852 4.15435 72.8722 4.40815 72.8592C4.67531 72.8461 4.97587 72.8396 5.30982 72.8396C5.65712 72.8396 5.83078 72.9243 5.83078 73.0935C5.83078 73.1976 5.77735 73.2757 5.67048 73.3278C5.57698 73.3799 5.43672 73.4254 5.2497 73.4645C4.7421 73.5816 4.38811 73.7443 4.18774 73.9526C4.00073 74.1609 3.90722 74.4538 3.90722 74.8313V78.5607C3.90722 78.6518 3.93394 78.7104 3.98737 78.7364C4.05416 78.7625 4.12095 78.7755 4.18774 78.7755H10.8801C11.0003 78.7755 11.0604 78.6909 11.0604 78.5216V74.8313C11.0604 74.4668 10.9669 74.1804 10.7799 73.9721C10.6063 73.7508 10.259 73.5816 9.738 73.4645C9.53763 73.4254 9.39069 73.3799 9.29719 73.3278C9.20368 73.2757 9.15693 73.1976 9.15693 73.0935C9.15693 72.9243 9.3239 72.8396 9.65785 72.8396C9.99181 72.8396 10.299 72.8461 10.5796 72.8592C10.8601 72.8722 11.1272 72.8852 11.381 72.8982C11.6482 72.8982 11.922 72.8982 12.2026 72.8982C12.4564 72.8982 12.6768 72.8917 12.8638 72.8787C13.0642 72.8657 13.2712 72.8527 13.4849 72.8396C13.712 72.8266 13.9992 72.8201 14.3465 72.8201C14.5068 72.8201 14.6337 72.8461 14.7272 72.8982C14.8207 72.9503 14.8675 73.0154 14.8675 73.0935C14.8675 73.2627 14.6738 73.3864 14.2864 73.4645C13.7922 73.5686 13.4849 73.7248 13.3647 73.9331C13.2445 74.1283 13.1844 74.4212 13.1844 74.8117V83.6569C13.1844 84.1125 13.2512 84.438 13.3847 84.6332C13.5317 84.8285 13.8456 84.9717 14.3265 85.0628C14.7005 85.1409 14.8875 85.2581 14.8875 85.4143C14.8875 85.4924 14.8341 85.5509 14.7272 85.59C14.6337 85.6421 14.5135 85.6681 14.3666 85.6681C14.046 85.6681 13.7588 85.6551 13.505 85.629C13.2645 85.616 13.0308 85.603 12.8037 85.59C12.5766 85.577 12.3295 85.5705 12.0623 85.5705C11.7818 85.5705 11.5213 85.577 11.2809 85.59C11.0538 85.603 10.8066 85.616 10.5395 85.629C10.2723 85.6551 9.97177 85.6681 9.63782 85.6681C9.47752 85.6681 9.35062 85.6421 9.25711 85.59C9.17697 85.5509 9.13689 85.4924 9.13689 85.4143C9.13689 85.3101 9.17697 85.2385 9.25711 85.1995C9.35062 85.1474 9.49756 85.1018 9.69793 85.0628C10.1521 84.9717 10.4927 84.822 10.7198 84.6137C10.9469 84.4054 11.0604 84.0995 11.0604 83.696V79.9275C11.0604 79.8494 11.0538 79.7843 11.0404 79.7322C11.0271 79.6672 10.9803 79.6346 10.9002 79.6346H4.06752C3.96066 79.6346 3.90722 79.7127 3.90722 79.8689V83.5593C3.90722 83.9498 4.0408 84.2753 4.30796 84.5356C4.57512 84.7959 4.94247 84.9717 5.41 85.0628C5.61037 85.1018 5.75731 85.1474 5.85082 85.1995C5.94432 85.2385 5.99108 85.3101 5.99108 85.4143C5.99108 85.4924 5.94432 85.5509 5.85082 85.59C5.75731 85.6421 5.63041 85.6681 5.47011 85.6681C5.13616 85.6681 4.82893 85.6551 4.54841 85.629C4.26789 85.616 3.99405 85.603 3.72689 85.59C3.47309 85.577 3.19925 85.5705 2.90537 85.5705C2.63821 85.5705 2.38441 85.577 2.14396 85.59C1.90352 85.603 1.64972 85.616 1.38256 85.629C1.12875 85.6551 0.834877 85.6681 0.500926 85.6681Z" fill="white"/>
</svg>
